<?xml version="1.0" encoding="utf-8"?>
<!-- Generator: Adobe Illustrator 21.1.0, SVG Export Plug-In . SVG Version: 6.00 Build 0)  -->
<svg version="1.1" id="Layer_1" xmlns="http://www.w3.org/2000/svg" xmlns:xlink="http://www.w3.org/1999/xlink" x="0px" y="0px"
	 viewBox="0 0 365.6 181.4" style="enable-background:new 0 0 365.6 181.4;" xml:space="preserve">
<style type="text/css">
	.st0{fill:#14748D;}
	.st1{fill:#DD1F69;}
	.st2{fill:#FCAC17;}
	.st3{fill:#1EB6E5;}
	.st4{font-family:'MyriadPro-Regular';}
	.st5{font-size:13px;}
</style>
<g>
	<g>
		<g>
			<path class="st0" d="M91.6,154.8c-3.4,0-5.9,2.7-5.9,6.3c0,3.6,2.6,6.3,5.9,6.3c1.8,0,3.9-1,5.4-2.6l3.3,3.6
				c-2.3,2.5-5.8,4.1-9.1,4.1c-6.6,0-11.5-4.9-11.5-11.4c0-6.4,5-11.2,11.7-11.2c3.2,0,6.7,1.5,8.8,3.8l-3.3,4
				C95.6,155.9,93.5,154.8,91.6,154.8z"/>
			<path class="st0" d="M131.3,161.1c0,6.5-5.1,11.4-11.8,11.4s-11.8-4.9-11.8-11.4c0-6.5,5.1-11.3,11.8-11.3
				S131.3,154.7,131.3,161.1z M113.5,161.2c0,3.6,2.8,6.4,6,6.4c3.3,0,5.9-2.8,5.9-6.4s-2.6-6.3-5.9-6.3S113.5,157.6,113.5,161.2z"
				/>
			<path class="st0" d="M145.4,150l9.9,13.4V150h5.3v22.2h-5l-9.9-13.3v13.3h-5.3V150H145.4z"/>
			<path class="st0" d="M176.2,150l9.9,13.4V150h5.3v22.2h-5l-9.9-13.3v13.3h-5.3V150H176.2z"/>
			<path class="st0" d="M219.2,150v4.6h-11.6v4.2h10.4v4.6h-10.4v4.2h11.9v4.6h-17.6V150H219.2z"/>
			<path class="st0" d="M239.6,154.8c-3.4,0-5.9,2.7-5.9,6.3c0,3.6,2.6,6.3,5.9,6.3c1.8,0,3.9-1,5.4-2.6l3.3,3.6
				c-2.3,2.5-5.8,4.1-9.1,4.1c-6.6,0-11.5-4.9-11.5-11.4c0-6.4,5-11.2,11.7-11.2c3.2,0,6.6,1.5,8.8,3.8l-3.3,4
				C243.6,155.9,241.5,154.8,239.6,154.8z"/>
			<path class="st0" d="M273.9,150v4.8h-6.6v17.5h-5.7v-17.5h-6.5V150H273.9z"/>
		</g>
	</g>
	<g>
		<g>
			<g>
				<path class="st1" d="M104.3,132l-12.6-23.9h-0.5H74.9V132H52.4V45.6h38.8c22.9,0,36,11.1,36,30.3c0,13.1-5.4,22.7-15.4,27.9
					l18,28.2H104.3z M74.9,90.1h16.4c9.1,0,14.4-4.7,14.4-13.4c0-8.5-5.3-13.1-14.4-13.1H74.9V90.1z"/>
			</g>
		</g>
		<g>
			<g>
				<path class="st2" d="M216.4,88.8c0,25.8-18.9,43.3-46.9,43.3h-36.4V45.6h37.2C197.8,45.6,216.4,63.1,216.4,88.8z M193.4,89
					c0-14.9-9.7-25-23.4-25h-14.2v49.8H171C184.1,113.8,193.4,103.8,193.4,89z"/>
			</g>
		</g>
		<g>
			<g>
				<path class="st3" d="M243.9,45.7V81h34.9V45.7h22.6v86.4h-22.6V99h-34.9v33.2h-22.6V45.7H243.9z"/>
			</g>
		</g>
	</g>
	<path class="st0" d="M319.1,9.4H30.4c-11.1,0-20.2,9.1-20.2,20.2v114.3c0,13.5,10.9,24.4,24.4,24.4h27.6v-11.1H34.6
		c-7.4,0-13.3-6-13.3-13.3V29.6c0-5,4.1-9.1,9.1-9.1h288.7c7.4,0,13.3,6,13.3,13.3v110.1c0,7.4-6,13.3-13.3,13.3h-27v11.1h27
		c13.5,0,24.4-10.9,24.4-24.4V33.8C343.5,20.3,332.6,9.4,319.1,9.4z"/>
	<path class="st3" d="M21.3,60.9v-31c0-5,4.1-9.1,9.1-9.1h288.7c7.4,0,13.3,6,13.3,13.3v60.3c3.8,2.8,7.5,5.6,11.1,8.6V34.1
		c0-13.5-10.9-24.4-24.4-24.4H30.4c-11.1,0-20.2,9.1-20.2,20.2v39.6C13.8,66.5,17.5,63.6,21.3,60.9z"/>
</g>
<text transform="matrix(1 0 0 1 343.1373 17.6221)" class="st3 st4 st5">TM</text>
</svg>
