<?xml version="1.0" ?><svg  fill="#fff" data-name="Capa 1" id="Capa_1" viewBox="0 0 20 19.84" xmlns="http://www.w3.org/2000/svg"><path d="M15.6,3.89H4.4A2.35,2.35,0,0,0,2.05,6.24v.1A2.36,2.36,0,0,0,4.4,8.69s0,0,.06,0V14.3A1.66,1.66,0,0,0,6.12,16h7.77a1.66,1.66,0,0,0,1.66-1.65V8.67l0,0A2.36,2.36,0,0,0,18,6.34v-.1A2.35,2.35,0,0,0,15.6,3.89ZM13.89,15.36H6.12A1.07,1.07,0,0,1,5.06,14.3V6.71H9.83v6.55a.27.27,0,0,0,.54,0V6.71h2V10.4a.27.27,0,0,0,.54,0V6.71h2V14.3A1.07,1.07,0,0,1,13.89,15.36Zm3.46-9A1.76,1.76,0,0,1,15.6,8.09l0,0V6.71h.62a.3.3,0,0,0,.3-.3.29.29,0,0,0-.3-.3H3.84a.3.3,0,0,0-.3.3.31.31,0,0,0,.3.3h.62v1.4l-.06,0A1.76,1.76,0,0,1,2.65,6.34v-.1A1.75,1.75,0,0,1,4.4,4.49H15.6a1.75,1.75,0,0,1,1.75,1.75Z"/><path d="M7.51,11.09a.27.27,0,0,0-.27.27v1.86a.27.27,0,1,0,.54,0V11.36A.27.27,0,0,0,7.51,11.09Z"/></svg>