<?xml version="1.0" ?><svg fill="#fff" data-name="Layer 1" id="Layer_1" viewBox="0 0 288.06 443.03" xmlns="http://www.w3.org/2000/svg"><defs><style>.cls-1{fill:none;stroke:#fff;stroke-miterlimit:10;stroke-width:20px;}.cls-2{fill:#fff;}</style></defs><title/><path class="cls-1" d="M658,536l-84-2a41.16,41.16,0,0,1-26-31V210a40.06,40.06,0,0,1,10-27c10.93-12.18,25.45-12.91,28-13l157-1q16.93,18.18,34,37,21,23.15,41,46" transform="translate(-537.99 -158.97)"/><path d="M737.56,175.08l-1.23,70c1.58,3.28,4.47,7.83,9.6,10.41a20.53,20.53,0,0,0,10.76,2c9.86-.52,31.22-.57,60-.58Z" transform="translate(-537.99 -158.97)"/><path d="M659.32,467.14c-.2-1.12-2.13-13.28,6.76-22.5,8.64-9,20.08-7.46,21.27-7.28.37-.53,8.38-11.51,21.6-10.26,11.46,1.08,17.38,10.49,18,11.58,1.34-.18,12.15-1.46,20.63,6.95,8.73,8.66,7.56,20.22,7.41,21.51.74.48,10.46,7.1,10.63,19.52.18,12.84-10,19.79-10.63,20.19.35,1.61,2.06,10.33-3.22,18.2a23,23,0,0,1-22.88,9.5c-.58.82-8.46,11.62-21.92,11-12.09-.55-18.84-9.85-19.66-11-.93.21-12.17,2.58-20.94-5.86s-7.24-19.82-7.09-20.85c-.55-.42-11.67-9.48-10-23.49A26.13,26.13,0,0,1,659.32,467.14Z" transform="translate(-537.99 -158.97)"/><circle class="cls-2" cx="707.04" cy="486.3" r="20.67" transform="translate(-582.47 -86.94) rotate(-5.65)"/><path class="cls-2" d="M769.67,535" transform="translate(-537.99 -158.97)"/><path class="cls-1" d="M816.05,245.66V507.51a33.78,33.78,0,0,1-10.31,17,49.52,49.52,0,0,1-19.48,10.72L754,537" transform="translate(-537.99 -158.97)"/><path d="M672,548h8c2,1.8,12.92,11.63,29.33,10.67A40.15,40.15,0,0,0,734,548h9v54l-35.5-22.67L672,602Z" transform="translate(-537.99 -158.97)"/><rect height="22.5" rx="11.25" ry="11.25" width="167.57" x="60.1" y="216.62"/><rect height="22.5" rx="11.25" ry="11.25" width="127.07" x="60.1" y="101.62"/><rect height="22.5" rx="11.25" ry="11.25" width="167.57" x="60.1" y="159.12"/></svg>