<?xml version="1.0" encoding="UTF-8"?>
<svg version="1.1" xmlns="http://www.w3.org/2000/svg" width="442" height="354">
<path d="M0 0 C0.84082123 -0.0049649 1.68164246 -0.00992981 2.54794312 -0.01504517 C5.337553 -0.02968429 8.12710601 -0.03647203 10.91674805 -0.04199219 C12.85247296 -0.04774262 14.78819786 -0.05350037 16.72392273 -0.05926514 C20.78681708 -0.0697804 24.84969161 -0.07561948 28.91259766 -0.07910156 C34.11809972 -0.08458446 39.32333998 -0.10860593 44.52875996 -0.13707352 C48.52905542 -0.15570082 52.52928786 -0.16090557 56.52962303 -0.16243744 C58.44856382 -0.16546477 60.36750347 -0.17349602 62.28640175 -0.18662262 C64.97238671 -0.20368345 67.65773279 -0.2018027 70.34375 -0.1953125 C71.13614578 -0.20452728 71.92854156 -0.21374207 72.74494934 -0.22323608 C77.30527648 -0.18872975 80.24055326 0.33594152 83.8659668 3.16113281 C86.81869759 6.95750097 87.70088181 10.37366818 87.8659668 15.16113281 C86.38524282 19.75917042 84.76585322 23.23621799 80.8659668 26.16113281 C74.92007638 28.30542355 69.21049188 28.58002399 62.9284668 28.78613281 C61.4734375 28.84414062 61.4734375 28.84414062 59.98901367 28.90332031 C57.61484604 28.99688357 55.24067188 29.08262489 52.8659668 29.16113281 C57.883722 48.15109254 64.93606091 66.37294387 76.8659668 82.16113281 C77.84049805 83.46630859 77.84049805 83.46630859 78.8347168 84.79785156 C102.91394712 115.57074852 138.22733526 136.95829764 177.33081055 141.85253906 C218.58979464 145.45415204 260.06966714 137.56969157 292.85424805 110.71191406 C319.42792106 88.20528828 335.42325587 61.65925663 344.8659668 28.16113281 C344.01216431 28.17684326 344.01216431 28.17684326 343.14111328 28.19287109 C340.5286105 28.23479 337.91617881 28.26057169 335.3034668 28.28613281 C333.96058594 28.31126953 333.96058594 28.31126953 332.59057617 28.33691406 C325.98687579 28.38529282 320.54457604 28.12544626 315.0534668 24.09863281 C312.20589887 20.27475589 311.04586537 16.92844498 310.8659668 12.16113281 C312.26110115 7.4331775 314.08968572 4.3283363 317.8659668 1.16113281 C321.04262881 -0.42719819 324.47768651 -0.02201601 327.96826172 -0.04760742 C329.22467468 -0.0622831 329.22467468 -0.0622831 330.50646973 -0.07725525 C333.28644211 -0.10723844 336.06636619 -0.12860501 338.84643555 -0.14746094 C339.79569727 -0.15403276 340.74495899 -0.16060459 341.72298622 -0.16737556 C346.74955378 -0.19998511 351.77610002 -0.2244297 356.80273438 -0.24389648 C360.96125196 -0.2616985 365.11909002 -0.29649858 369.27734375 -0.34643555 C374.29828045 -0.40666448 379.31858779 -0.43737638 384.33986855 -0.44706917 C386.25163401 -0.45562217 388.16338275 -0.47443651 390.07494164 -0.50381279 C392.75626943 -0.54279313 395.43515457 -0.5437538 398.11669922 -0.53588867 C399.29450706 -0.56588959 399.29450706 -0.56588959 400.49610901 -0.59649658 C405.90014238 -0.52559153 408.62503622 0.98081615 412.54465199 4.67782497 C415.62805359 8.13925122 415.31889531 11.87906652 415.2722168 16.32519531 C414.73103153 20.10308475 413.37381296 22.03725997 410.86206055 24.82128906 C404.66863806 28.97851786 397.58514387 28.40719566 390.4284668 28.28613281 C389.41075195 28.27710938 388.39303711 28.26808594 387.34448242 28.25878906 C384.85139524 28.23537979 382.3588082 28.20258981 379.8659668 28.16113281 C379.7422168 28.96550781 379.6184668 29.76988281 379.4909668 30.59863281 C374.88085729 56.876257 364.09863741 81.95739861 347.8659668 103.16113281 C347.23561523 104.0003125 346.60526367 104.83949219 345.95581055 105.70410156 C316.42838823 143.84116243 272.79218482 169.07462708 224.86915588 175.42576599 C219.6173895 176.04597902 214.44511498 176.33295364 209.15893555 176.36425781 C207.96043976 176.37484726 207.96043976 176.37484726 206.73773193 176.38565063 C173.43112572 176.61322435 173.43112572 176.61322435 158.8659668 173.16113281 C157.99842773 172.96245605 157.13088867 172.7637793 156.23706055 172.55908203 C130.41379373 166.49824145 105.88572772 155.40727174 84.8659668 139.16113281 C83.52598633 138.15566406 83.52598633 138.15566406 82.15893555 137.12988281 C49.89436748 111.97609661 25.15314189 73.75197653 17.8659668 33.16113281 C17.84849649 31.49455771 17.84618683 29.8276821 17.8659668 28.16113281 C17.26647217 28.17160645 16.66697754 28.18208008 16.04931641 28.19287109 C13.30074349 28.23476118 10.55223806 28.26056285 7.8034668 28.28613281 C6.86051758 28.30289063 5.91756836 28.31964844 4.94604492 28.33691406 C-1.21988355 28.37988221 -6.83815058 28.37343759 -12.13012695 24.82128906 C-15.34175214 21.26152022 -16.59838088 18.49065001 -16.8840332 13.66113281 C-16.62053842 8.62699573 -15.14718096 5.94252354 -11.6418457 2.40332031 C-8.0910129 -0.52197718 -4.38192966 0.00613472 0 0 Z " fill="#FFFFFF" transform="translate(21.134033203125,175.8388671875)"/>
<path d="M0 0 C3.4695347 1.80415805 4.55016378 2.96527605 6.09130859 6.51025391 C7.28989207 11.11330392 7.35529872 15.47228155 7.4140625 20.2109375 C7.43342865 21.17907379 7.4527948 22.14721008 7.4727478 23.14468384 C7.5322833 26.2213677 7.5788247 29.29808951 7.625 32.375 C7.66320373 34.46746377 7.70225685 36.55991222 7.7421875 38.65234375 C7.83796345 43.76810396 7.92209042 48.88393776 8 54 C8.5450972 53.51236176 9.0901944 53.02472351 9.65180969 52.52230835 C10.36910751 51.88636749 11.08640533 51.25042664 11.82543945 50.59521484 C12.53553665 49.9632016 13.24563385 49.33118835 13.97724915 48.68002319 C16.26286934 46.7816703 18.39039462 45.61972916 21.1875 44.625 C22.38439453 44.18027344 22.38439453 44.18027344 23.60546875 43.7265625 C34.86745907 40.30938436 46.25019977 41.33884001 57 46 C64.35185627 50.18611033 67.5229851 57.44584025 70.04801941 65.23141479 C70.992703 68.97111353 71.25960508 72.11079601 71.2746582 75.95751953 C71.27976913 76.61375305 71.28488007 77.26998657 71.29014587 77.94610596 C71.30392367 80.09177033 71.30309497 82.23710947 71.30078125 84.3828125 C71.30467305 85.88540769 71.30900872 87.38800179 71.31376648 88.89059448 C71.32120201 92.02915019 71.32095567 95.16759332 71.31567383 98.30615234 C71.309865 102.32219028 71.32685675 106.33776915 71.3500185 110.35373116 C71.36476365 113.45245034 71.3656268 116.55105892 71.36250877 119.64980698 C71.36302101 121.13054187 71.36824048 122.61128312 71.37832069 124.0919838 C71.39069151 126.16204878 71.3838921 128.23121833 71.37231445 130.30126953 C71.37294388 131.47706573 71.3735733 132.65286194 71.3742218 133.86428833 C70.96015155 137.33390157 70.05996791 139.20683721 68 142 C63.76106227 144.90217729 58.93734698 144.6307967 54 144 C50.4869372 142.30620186 48.60805593 141.21911692 46.86070251 137.71577454 C45.91859425 134.74314045 45.74214055 132.34983603 45.72875977 129.23510742 C45.71347984 127.53260078 45.71347984 127.53260078 45.69789124 125.79570007 C45.69575119 124.57792374 45.69361115 123.3601474 45.69140625 122.10546875 C45.66624495 119.51497172 45.64084694 116.92447698 45.61523438 114.33398438 C45.58450052 110.25906404 45.56227552 106.18412274 45.54370117 102.10913086 C45.52467186 98.17023315 45.48255675 94.23169748 45.44140625 90.29296875 C45.44123253 88.47541328 45.44123253 88.47541328 45.4410553 86.62113953 C45.35264351 79.03544798 44.99341868 72.64822902 40 66.5625 C35.16172803 62.78260002 28.82960285 63.47474391 23 64 C17.06294476 65.69768736 13.42191656 68.96776976 10 74 C7.3700538 79.79662791 7.68601929 85.69224145 7.65625 91.93359375 C7.6416272 93.08489273 7.62700439 94.23619171 7.61193848 95.42237854 C7.56553857 99.09405068 7.53128239 102.76566981 7.5 106.4375 C7.45877208 111.26972881 7.40507106 116.10158277 7.34375 120.93359375 C7.3384729 122.03795273 7.3331958 123.14231171 7.32775879 124.28013611 C7.15226821 137.9015385 7.15226821 137.9015385 2.5 142.4375 C-2.14633859 144.5117583 -5.98894471 144.67875498 -11 144 C-14.38268419 142.70450393 -15.58102459 141.61495145 -17.6056366 138.64332581 C-19.62606531 133.36415679 -19.40961991 128.43836938 -19.37231445 122.83178711 C-19.37596512 121.60999252 -19.37961578 120.38819794 -19.38337708 119.12937927 C-19.39008006 115.79045724 -19.38339013 112.4520954 -19.37004495 109.11322856 C-19.35869683 105.61353581 -19.36284048 102.11385687 -19.36479187 98.614151 C-19.36567367 92.73905644 -19.35461743 86.86407752 -19.33618164 80.98901367 C-19.31500587 74.20203149 -19.31150691 67.41521854 -19.3177436 60.62821001 C-19.32344284 54.09067999 -19.31778564 47.55320939 -19.30657005 41.01568794 C-19.30193248 38.23709575 -19.30104655 35.45854 -19.3031559 32.67994499 C-19.30539332 28.7995056 -19.29091379 24.91922642 -19.2746582 21.03881836 C-19.27713562 19.88802795 -19.27961304 18.73723755 -19.28216553 17.55157471 C-19.27508072 16.49318893 -19.26799591 15.43480316 -19.26069641 14.34434509 C-19.25864354 13.42757964 -19.25659067 12.51081419 -19.25447559 11.56626797 C-18.85849381 7.57297595 -17.64155166 4.79124705 -15.125 1.6875 C-10.22936394 -0.95614347 -5.44013195 -0.73841126 0 0 Z " fill="#FFFFFF" transform="translate(114,1)"/>
<path d="M0 0 C0.96639404 0.00757324 1.93278809 0.01514648 2.9284668 0.02294922 C9.9386555 0.18510977 15.8569996 0.97321195 22.0625 4.4375 C22.85527344 4.86160156 23.64804687 5.28570312 24.46484375 5.72265625 C34.92956526 11.97362966 40.62445588 22.15417817 43.671875 33.7578125 C44.22172055 37.52975296 44.36602058 41.25459656 44.4375 45.0625 C44.49357422 46.2071875 44.49357422 46.2071875 44.55078125 47.375 C44.5859375 49.6015625 44.5859375 49.6015625 44.0625 53.4375 C40.34198676 56.43103381 37.40099442 56.8062685 32.71166992 56.77807617 C30.82027534 56.77773628 30.82027534 56.77773628 28.89067078 56.77738953 C27.52476644 56.76207202 26.15886578 56.74642407 24.79296875 56.73046875 C23.38764398 56.72486912 21.98231333 56.72060075 20.57698059 56.71760559 C16.88941095 56.70618555 13.20219931 56.67674342 9.51477051 56.64349365 C5.74752647 56.61273111 1.98022423 56.59908709 -1.78710938 56.58398438 C-9.17073561 56.55187048 -16.55406752 56.50070917 -23.9375 56.4375 C-23.33456966 58.35661767 -22.72201933 60.27271464 -22.10546875 62.1875 C-21.76539795 63.25484375 -21.42532715 64.3221875 -21.07495117 65.421875 C-18.74809053 71.5908775 -15.30048183 75.03677595 -9.375 77.8125 C2.10013061 82.27293283 14.36476337 81.05939331 25.6796875 76.34765625 C27.16548239 75.64478022 28.65116962 74.94167654 30.13671875 74.23828125 C32.97868266 73.05653155 35.04261712 72.88843039 38.0625 73.4375 C40.9375 74.875 40.9375 74.875 43.0625 77.4375 C44.17595506 82.169684 43.60570925 85.4959373 41.1875 89.6875 C31.51034323 99.4730843 16.93823654 100.69678576 4 100.8125 C2.99501465 100.82643799 1.9900293 100.84037598 0.95458984 100.85473633 C-13.60740474 100.76317389 -26.09473747 95.92351423 -36.67578125 85.890625 C-44.59640982 77.29968417 -48.02614876 66.92052562 -48.9375 55.4375 C-48.99035156 54.79941406 -49.04320312 54.16132812 -49.09765625 53.50390625 C-49.70502935 39.53432492 -45.76282609 26.03287954 -37.0546875 15.06640625 C-26.98958318 4.28818725 -14.50868786 -0.15975659 0 0 Z M-17.9375 25.4375 C-21.24341998 30.79506138 -22.89203177 35.16469061 -23.9375 41.4375 C-8.4275 41.4375 7.0825 41.4375 23.0625 41.4375 C21.89543128 32.10095028 20.32675844 26.46854481 12.84765625 20.625 C3.54509849 14.43686529 -10.85184483 16.77040875 -17.9375 25.4375 Z " fill="#FFFFFF" transform="translate(396.9375,40.5625)"/>
<path d="M0 0 C3.01800609 1.25750254 4.41247482 2.14808849 6.25 4.8125 C7.17590345 7.51305173 7.61486075 10.17564549 8 13 C8.38929688 12.55269531 8.77859375 12.10539062 9.1796875 11.64453125 C14.98160803 5.37471391 22.41923899 0.49383767 31.1472168 -0.16113281 C33.66077986 -0.20698421 36.17355397 -0.23526625 38.6875 -0.25 C39.97817383 -0.2809375 39.97817383 -0.2809375 41.29492188 -0.3125 C51.07488489 -0.37145984 57.95100878 2.0462157 65.0546875 8.828125 C73.54486297 18.30711608 73.33169503 30.84366071 73.37109375 42.88671875 C73.38007868 44.31679875 73.38920081 45.74687788 73.39845276 47.17695618 C73.41484696 50.15811434 73.42262656 53.13916137 73.42553711 56.12036133 C73.43094395 59.93024895 73.4687575 63.73908799 73.51428127 67.5486784 C73.54407487 70.49560854 73.55126097 73.44228515 73.55226326 76.3893528 C73.5564528 77.79394197 73.56883627 79.19853278 73.58978081 80.60297203 C73.7588996 92.91053687 73.7588996 92.91053687 70.59008789 96.84301758 C65.94067766 100.71496964 61.8863123 100.51992664 56 100 C52.20959522 98.38706179 50.16520404 96.4703604 48 93 C47.62145996 90.42233276 47.62145996 90.42233276 47.61523438 87.47216797 C47.60512329 86.36356415 47.59501221 85.25496033 47.58459473 84.11276245 C47.58761597 82.91797272 47.59063721 81.72318298 47.59375 80.4921875 C47.58291382 79.25638947 47.57207764 78.02059143 47.56091309 76.74734497 C47.52660592 72.78988848 47.51045419 68.83257113 47.5 64.875 C47.485381 59.68462095 47.45155014 54.49487951 47.40625 49.3046875 C47.40927124 48.12204315 47.41229248 46.9393988 47.41540527 45.72091675 C47.31810587 33.5664987 47.31810587 33.5664987 41.4375 23.4375 C36.04517737 20.25741229 31.19273221 20.34499948 25 21 C19.82018973 22.63276628 16.0699588 24.76954738 12.5 28.875 C8.91462735 36.34452636 8.70722374 42.91584295 8.69140625 51.1015625 C8.66626164 53.47135679 8.64086341 55.8411484 8.61523438 58.2109375 C8.58643036 61.92837924 8.56239553 65.64577474 8.54370117 69.36328125 C8.5220773 72.96377462 8.48265883 76.56374842 8.44140625 80.1640625 C8.44129044 81.27560699 8.44117462 82.38715149 8.4410553 83.53237915 C8.42771652 84.57050751 8.41437775 85.60863586 8.40063477 86.67822266 C8.39302879 88.04220688 8.39302879 88.04220688 8.38526917 89.43374634 C7.77792724 93.47921265 5.97808107 96.14047421 2.9375 98.8125 C-2.33003824 100.94193035 -7.75654727 100.93477197 -13 98.75 C-16.35941971 95.81050775 -16.94527551 93.74858969 -17.27415466 89.24977112 C-17.29514624 87.7129252 -17.30510542 86.17590475 -17.30639648 84.63891602 C-17.31472 83.79780273 -17.32304352 82.95668945 -17.33161926 82.09008789 C-17.35570312 79.31131353 -17.36448867 76.53277389 -17.37109375 73.75390625 C-17.38006013 71.82103912 -17.38918198 69.8881727 -17.39845276 67.95530701 C-17.41494009 63.90435092 -17.42264261 59.85347747 -17.42553711 55.80249023 C-17.43092575 50.61252231 -17.46862675 45.42333093 -17.51428127 40.2335825 C-17.54402468 36.24184837 -17.55126005 32.25030204 -17.55226326 28.25846672 C-17.55646968 26.34508641 -17.56892086 24.43170575 -17.58978081 22.51843452 C-17.61664388 19.84186763 -17.61188587 17.16711147 -17.59936523 14.49047852 C-17.61419952 13.70122482 -17.62903381 12.91197113 -17.64431763 12.09880066 C-17.59014 8.03075686 -17.1879806 6.23128072 -14.58753967 3.03184509 C-9.88042634 -0.66437847 -5.8421532 -0.51521351 0 0 Z " fill="#FFFFFF" transform="translate(262,41)"/>
<path d="M0 0 C2.74783864 3.07111378 3 4.37188903 3 8.5 C1.79547387 12.71584145 0.52592004 14.4143253 -3 17 C-7.68916208 17.47219534 -10.8708811 16.48283756 -15.125 14.5625 C-21.33984147 11.78717003 -26.05609257 10.80004703 -32.875 10.75 C-33.56980469 10.729375 -34.26460937 10.70875 -34.98046875 10.6875 C-40.62802706 10.64495719 -44.71993073 11.87193535 -48.875 15.75 C-50.51390214 19.02780427 -50.451198 21.390416 -50 25 C-46.99397065 29.91895713 -41.24472245 30.61409354 -36 32 C-31.2084199 33.07238144 -26.39085567 34.01747469 -21.56640625 34.9296875 C-12.40260098 36.79934978 -4.25715056 39.69849569 1.84375 47.05859375 C6.2426708 54.44461956 6.20078016 63.68636804 4.34765625 71.88671875 C1.10767299 80.96701517 -4.80181504 85.81123841 -13.27734375 89.95703125 C-28.83144649 95.91534607 -49.61769999 95.17683032 -65 89 C-69.67879169 86.89325125 -73.12036761 85.31944858 -76 81 C-76.53797807 77.60790669 -76.53858369 74.39252198 -76 71 C-73.875 68.375 -73.875 68.375 -71 67 C-66.39544518 66.61735001 -63.40463318 67.43242827 -59.25 69.375 C-48.85310981 73.88927089 -36.46122193 76.47937245 -25.375 72.75 C-21.28825719 70.69994746 -21.28825719 70.69994746 -19 67 C-18.3840674 62.11439088 -18.3840674 62.11439088 -20.58203125 57.90625 C-23.6790702 55.46464256 -26.28215031 54.86949326 -30.125 54 C-30.81932129 53.83612793 -31.51364258 53.67225586 -32.22900391 53.50341797 C-36.03931174 52.61510973 -39.86386374 51.82257869 -43.703125 51.0703125 C-54.5313442 48.91255602 -63.91011845 46.9093783 -70.5625 37.3125 C-75.06297699 29.93069781 -75.22283947 21.46594509 -73.3515625 13.1015625 C-70.27802709 4.56396414 -65.07957675 -0.10812022 -57.1875 -4.3125 C-40.38421777 -12.10141327 -15.20130869 -11.80719226 0 0 Z " fill="#FFFFFF" transform="translate(77,52)"/>
<path d="M0 0 C1.01964844 -0.01675781 2.03929687 -0.03351562 3.08984375 -0.05078125 C6.62084589 0.38073412 8.32181317 1.03555037 11.0625 3.3125 C14.19263488 9.03707244 14.36632585 13.38970116 13.89453125 19.80859375 C13.83803909 20.75125595 13.78154694 21.69391815 13.7233429 22.66514587 C13.52297276 25.88256244 13.29408779 29.09718623 13.0625 32.3125 C12.98191345 33.49837708 12.9013269 34.68425415 12.81829834 35.90606689 C12.28683461 43.71910659 11.69864344 51.52645685 11.07055664 59.33227539 C10.85212064 62.05719014 10.64448355 64.7826258 10.44555664 67.5090332 C10.15442263 71.49865564 9.83429186 75.4854507 9.51171875 79.47265625 C9.3833387 81.29906395 9.3833387 81.29906395 9.25236511 83.16236877 C9.15579117 84.29222702 9.05921722 85.42208527 8.9597168 86.58618164 C8.88279099 87.57461563 8.80586517 88.56304962 8.72660828 89.58143616 C7.90081696 92.97740167 6.44835908 94.79438744 4.0625 97.3125 C2.0625 97.9765625 2.0625 97.9765625 0.0625 97.9375 C-0.5975 97.95039063 -1.2575 97.96328125 -1.9375 97.9765625 C-5.10857929 96.92366508 -6.12612393 95.07936216 -7.9375 92.3125 C-8.50691085 89.4898016 -8.85491293 86.96499705 -9.0546875 84.1171875 C-9.1264621 83.29580292 -9.19823669 82.47441833 -9.27218628 81.62814331 C-9.42720954 79.82336216 -9.57385295 78.01784674 -9.71325684 76.21179199 C-9.9459156 73.20369276 -10.20179419 70.19822553 -10.46191406 67.19238281 C-10.92936733 61.7311605 -11.368985 56.26812658 -11.79736328 50.80371094 C-12.06381858 47.42075917 -12.33842233 44.03852812 -12.61328125 40.65625 C-15.15462147 8.83390183 -15.15462147 8.83390183 -9.9375 2.3125 C-6.65944893 0.17055052 -3.87006735 0.01464086 0 0 Z " fill="#fff" transform="translate(214.9375,32.6875)"/>
<path d="M0 0 C4.15945764 4.05800745 5.17806117 7.06111463 5.3125 12.75 C5.26637259 18.24575177 4.78216293 21.00771691 1 25 C-3.8684018 28.08832537 -9.44821061 27.60861862 -15 27 C-18.19424103 25.81739931 -20.27229209 24.14715067 -22.125 21.2265625 C-24.34052752 15.58883623 -23.78576221 8.94732374 -21.5625 3.4375 C-15.37039698 -2.45254921 -7.83774122 -3.15765114 0 0 Z " fill="#fff" transform="translate(224,142)"/>
</svg>
