<?xml version="1.0" ?><svg height="48px" version="1.1" viewBox="0 0 48 48" width="48px" xmlns="http://www.w3.org/2000/svg" xmlns:xlink="http://www.w3.org/1999/xlink"><title/><g fill="none" fill-rule="evenodd" id="arrow-repeat" stroke="none" stroke-width="1"><path d="M18.5839749,26.7226499 L18.5434343,26.7953753 C18.3973068,27.1162383 18.6291771,27.5 19,27.5 L24.5,27.5 L24.5,30.5 C24.5,36.7294385 29.6099938,41.5 35.5,41.5 C41.5021418,41.5 46.5,36.63729 46.5,30.5 L46.5,27 C46.5,26.7238576 46.2761424,26.5 46,26.5 L42,26.5 C41.7238576,26.5 41.5,26.7238576 41.5,27 L41.5,30.5 C41.5,33.8685273 38.8049786,36.5 35.5,36.5 L35.2847529,36.4960227 C32.2077122,36.3823002 29.5,33.842423 29.5,30.5 L29.5,27.5 L35,27.5 C35.3993477,27.5 35.6375434,27.0549273 35.4160251,26.7226499 L27.4160251,14.7226499 C27.2181141,14.4257834 26.7818859,14.4257834 26.5839749,14.7226499 L18.5839749,26.7226499 Z" fill="#2372b1" fill-rule="nonzero" id="Path" transform="translate(32.499580, 28.000000) rotate(-90.000000) translate(-32.499580, -28.000000) "/><path d="M1.58397485,20.7226499 L1.54343429,20.7953753 C1.39730677,21.1162383 1.62917714,21.5 2,21.5 L7.5,21.5 L7.5,24.5 C7.5,30.7294385 12.6099938,35.5 18.5,35.5 C24.5021418,35.5 29.5,30.63729 29.5,24.5 L29.5,21 C29.5,20.7238576 29.2761424,20.5 29,20.5 L25,20.5 C24.7238576,20.5 24.5,20.7238576 24.5,21 L24.5,24.5 C24.5,27.8685273 21.8049786,30.5 18.5,30.5 L18.2847529,30.4960227 C15.2077122,30.3823002 12.5,27.842423 12.5,24.5 L12.5,21.5 L18,21.5 C18.3993477,21.5 18.6375434,21.0549273 18.4160251,20.7226499 L10.4160251,8.7226499 C10.2181141,8.42578337 9.78188588,8.42578337 9.58397485,8.7226499 L1.58397485,20.7226499 Z" fill="#2372b1" fill-rule="nonzero" id="Path" transform="translate(15.499580, 22.000000) scale(-1, -1) rotate(-90.000000) translate(-15.499580, -22.000000) "/></g></svg>