<?xml version="1.0" encoding="utf-8"?>
<!-- Generator: Adobe Illustrator 21.1.0, SVG Export Plug-In . SVG Version: 6.00 Build 0)  -->
<svg version="1.1" id="Layer_1" xmlns="http://www.w3.org/2000/svg" xmlns:xlink="http://www.w3.org/1999/xlink" x="0px" y="0px"
	 viewBox="0 0 95.6 111.4" style="enable-background:new 0 0 95.6 111.4;" xml:space="preserve">
<style type="text/css">
	.st0{fill:none;stroke:#000000;stroke-width:10;stroke-linecap:round;stroke-linejoin:round;stroke-miterlimit:10;}
</style>
<path class="st0" d="M86.5,63.1V48.3H76c-0.7-2.6-1.7-5-3-7.3l7.4-7.4L69.9,23.1l-7.4,7.4c-2.3-1.3-4.7-2.3-7.3-3V17H40.4v10.5
	c-2.6,0.7-5,1.7-7.3,3l-7.4-7.4L15.2,33.6l7.4,7.4c-1.3,2.3-2.3,4.7-3,7.3H9.1v14.8h10.5c0.7,2.6,1.7,5,3,7.3l-7.4,7.4l10.5,10.5
	l7.4-7.4c2.3,1.3,4.7,2.3,7.3,3v10.5h14.8V83.9c2.6-0.7,5-1.7,7.3-3l7.4,7.4l10.5-10.5L73,70.4c1.3-2.3,2.3-4.7,3-7.3H86.5z"/>
<circle class="st0" cx="47.8" cy="55.7" r="11.4"/>
</svg>
