<?xml version="1.0" encoding="UTF-8"?> <svg xmlns="http://www.w3.org/2000/svg" width="1000" height="729.875" viewBox="0 0 1000 729.875"><path d="M522.8322,342.9834l5.8941,11.7881L522.8322,366.56l-5.894-11.7881Z" style="fill:none;stroke:#fff;stroke-linecap:round;stroke-linejoin:round;stroke-width:2px"></path><path d="M499.2562,342.9834l5.8941,11.7881L499.2562,366.56l-5.894-11.7881Z" style="fill:none;stroke:#fff;stroke-linecap:round;stroke-linejoin:round;stroke-width:2px"></path><path d="M475.68,342.9834l5.8941,11.7881L475.68,366.56l-5.894-11.7881Z" style="fill:none;stroke:#fff;stroke-linecap:round;stroke-linejoin:round;stroke-width:2px"></path><path d="M452.1042,342.9834l5.8941,11.7881L452.1042,366.56l-5.894-11.7881Z" style="fill:none;stroke:#fff;stroke-linecap:round;stroke-linejoin:round;stroke-width:2px"></path><path d="M428.5282,342.9834l5.8941,11.7881L428.5282,366.56l-5.894-11.7881Z" style="fill:none;stroke:#fff;stroke-linecap:round;stroke-linejoin:round;stroke-width:2px"></path><path d="M404.9522,342.9834l5.894,11.7881-5.894,11.7881-5.894-11.7881Z" style="fill:none;stroke:#fff;stroke-linecap:round;stroke-linejoin:round;stroke-width:2px"></path><path d="M381.3762,342.9834l5.894,11.7881-5.894,11.7881-5.894-11.7881Z" style="fill:none;stroke:#fff;stroke-linecap:round;stroke-linejoin:round;stroke-width:2px"></path><path d="M357.8,342.9834l5.894,11.7881L357.8,366.56l-5.894-11.7881Z" style="fill:none;stroke:#fff;stroke-linecap:round;stroke-linejoin:round;stroke-width:2px"></path><path d="M334.2242,342.9834l5.894,11.7881-5.894,11.7881-5.894-11.7881Z" style="fill:none;stroke:#fff;stroke-linecap:round;stroke-linejoin:round;stroke-width:2px"></path><path d="M310.6492,342.9834l5.894,11.7881-5.894,11.7881-5.894-11.7881Z" style="fill:none;stroke:#fff;stroke-linecap:round;stroke-linejoin:round;stroke-width:2px"></path><path d="M287.0732,342.9834l5.894,11.7881-5.894,11.7881-5.894-11.7881Z" style="fill:none;stroke:#fff;stroke-linecap:round;stroke-linejoin:round;stroke-width:2px"></path><path d="M239.9212,342.9834l5.894,11.7881-5.894,11.7881-5.894-11.7881Z" style="fill:none;stroke:#fff;stroke-linecap:round;stroke-linejoin:round;stroke-width:2px"></path><path d="M216.3452,342.9834l5.894,11.7881-5.894,11.7881-5.894-11.7881Z" style="fill:none;stroke:#fff;stroke-linecap:round;stroke-linejoin:round;stroke-width:2px"></path><path d="M192.7692,342.9834l5.894,11.7881-5.894,11.7881-5.8939-11.7881Z" style="fill:none;stroke:#fff;stroke-linecap:round;stroke-linejoin:round;stroke-width:2px"></path><path d="M169.1932,342.9834l5.894,11.7881-5.894,11.7881-5.894-11.7881Z" style="fill:none;stroke:#fff;stroke-linecap:round;stroke-linejoin:round;stroke-width:2px"></path><path d="M145.6172,342.9834l3.438,6.876,2.456,4.9121-5.894,11.7881-5.894-11.7881Z" style="fill:none;stroke:#fff;stroke-linecap:round;stroke-linejoin:round;stroke-width:2px"></path><path d="M157.6172,372.9834l3.438,6.876,2.456,4.9121-5.894,11.7881-5.894-11.7881Z" style="fill:none;stroke:#fff;stroke-linecap:round;stroke-linejoin:round;stroke-width:2px"></path><path d="M122.0412,342.9834l5.894,11.7881-5.894,11.7881-5.894-11.7881Z" style="fill:none;stroke:#fff;stroke-linecap:round;stroke-linejoin:round;stroke-width:2px"></path><path d="M74.8892,342.9834l5.894,11.7881L74.8892,366.56l-5.8939-11.7881Z" style="fill:none;stroke:#fff;stroke-linecap:round;stroke-linejoin:round;stroke-width:2px"></path><path d="M522.8322,272.2554l5.8941,11.7881-5.8941,11.7881-5.894-11.7881Z" style="fill:none;stroke:#fff;stroke-linecap:round;stroke-linejoin:round;stroke-width:2px"></path><path d="M499.2562,272.2554l5.8941,11.7881-5.8941,11.7881-5.894-11.7881Z" style="fill:none;stroke:#fff;stroke-linecap:round;stroke-linejoin:round;stroke-width:2px"></path><path d="M475.68,272.2554l5.8941,11.7881L475.68,295.8316l-5.894-11.7881Z" style="fill:none;stroke:#fff;stroke-linecap:round;stroke-linejoin:round;stroke-width:2px"></path><path d="M452.1042,272.2554l5.8941,11.7881-5.8941,11.7881-5.894-11.7881Z" style="fill:none;stroke:#fff;stroke-linecap:round;stroke-linejoin:round;stroke-width:2px"></path><path d="M428.5282,272.2554l5.8941,11.7881-5.8941,11.7881-5.894-11.7881Z" style="fill:none;stroke:#fff;stroke-linecap:round;stroke-linejoin:round;stroke-width:2px"></path><path d="M404.9522,272.2554l5.894,11.7881-5.894,11.7881-5.894-11.7881Z" style="fill:none;stroke:#fff;stroke-linecap:round;stroke-linejoin:round;stroke-width:2px"></path><path d="M381.3762,272.2554l5.894,11.7881-5.894,11.7881-5.894-11.7881Z" style="fill:none;stroke:#fff;stroke-linecap:round;stroke-linejoin:round;stroke-width:2px"></path><path d="M357.8,272.2554l5.894,11.7881L357.8,295.8316l-5.894-11.7881Z" style="fill:none;stroke:#fff;stroke-linecap:round;stroke-linejoin:round;stroke-width:2px"></path><path d="M310.6492,272.2554l5.894,11.7881-5.894,11.7881-5.894-11.7881Z" style="fill:none;stroke:#fff;stroke-linecap:round;stroke-linejoin:round;stroke-width:2px"></path><path d="M287.0732,272.2554l5.894,11.7881-5.894,11.7881-5.894-11.7881Z" style="fill:none;stroke:#fff;stroke-linecap:round;stroke-linejoin:round;stroke-width:2px"></path><path d="M263.4972,272.2554l5.894,11.7881-5.894,11.7881-5.894-11.7881Z" style="fill:none;stroke:#fff;stroke-linecap:round;stroke-linejoin:round;stroke-width:2px"></path><path d="M239.9212,272.2554l5.894,11.7881-5.894,11.7881-5.894-11.7881Z" style="fill:none;stroke:#fff;stroke-linecap:round;stroke-linejoin:round;stroke-width:2px"></path><path d="M216.3452,272.2554l5.894,11.7881-5.894,11.7881-5.894-11.7881Z" style="fill:none;stroke:#fff;stroke-linecap:round;stroke-linejoin:round;stroke-width:2px"></path><path d="M275.3452,171.2554l5.894,11.7881-5.894,11.7881-5.894-11.7881Z" style="fill:none;stroke:#fff;stroke-linecap:round;stroke-linejoin:round;stroke-width:2px"></path><path d="M192.7692,272.2554l5.894,11.7881-5.894,11.7881-5.8939-11.7881Z" style="fill:none;stroke:#fff;stroke-linecap:round;stroke-linejoin:round;stroke-width:2px"></path><path d="M169.1932,272.2554l5.894,11.7881-5.894,11.7881-5.894-11.7881Z" style="fill:none;stroke:#fff;stroke-linecap:round;stroke-linejoin:round;stroke-width:2px"></path><path d="M145.6172,272.2554l5.894,11.7881-5.894,11.7881-5.894-11.7881Z" style="fill:none;stroke:#fff;stroke-linecap:round;stroke-linejoin:round;stroke-width:2px"></path><path d="M122.0412,272.2554l5.894,11.7881-5.894,11.7881-5.894-11.7881Z" style="fill:none;stroke:#fff;stroke-linecap:round;stroke-linejoin:round;stroke-width:2px"></path><path d="M98.4652,272.2554l5.894,11.7881-5.894,11.7881-5.894-11.7881Z" style="fill:none;stroke:#fff;stroke-linecap:round;stroke-linejoin:round;stroke-width:2px"></path><path d="M74.8892,272.2554l5.894,11.7881-5.894,11.7881-5.8939-11.7881Z" style="fill:none;stroke:#fff;stroke-linecap:round;stroke-linejoin:round;stroke-width:2px"></path><path d="M534.62,307.6194l5.8941,11.7881L534.62,331.1956l-5.894-11.7881Z" style="fill:none;stroke:#fff;stroke-linecap:round;stroke-linejoin:round;stroke-width:2px"></path><path d="M511.0442,307.6194l5.8941,11.7881-5.8941,11.7881-5.894-11.7881Z" style="fill:none;stroke:#fff;stroke-linecap:round;stroke-linejoin:round;stroke-width:2px"></path><path d="M487.4682,307.6194l5.8941,11.7881-5.8941,11.7881-5.894-11.7881Z" style="fill:none;stroke:#fff;stroke-linecap:round;stroke-linejoin:round;stroke-width:2px"></path><path d="M251.8922,171.6184l5.894,11.7881-5.894,11.7881-5.894-11.7881Z" style="fill:none;stroke:#fff;stroke-linecap:round;stroke-linejoin:round;stroke-width:2px"></path><path d="M263.8922,145.6184l5.894,11.7881-5.894,11.7881-5.894-11.7881Z" style="fill:none;stroke:#fff;stroke-linecap:round;stroke-linejoin:round;stroke-width:2px"></path><path d="M440.3162,307.6194l5.8941,11.7881-5.8941,11.7881-5.894-11.7881Z" style="fill:none;stroke:#fff;stroke-linecap:round;stroke-linejoin:round;stroke-width:2px"></path><path d="M416.74,307.6194l5.894,11.7881-5.894,11.7881-5.8941-11.7881Z" style="fill:none;stroke:#fff;stroke-linecap:round;stroke-linejoin:round;stroke-width:2px"></path><path d="M393.1642,307.6194l5.894,11.7881-5.894,11.7881-5.894-11.7881Z" style="fill:none;stroke:#fff;stroke-linecap:round;stroke-linejoin:round;stroke-width:2px"></path><path d="M369.5882,307.6194l5.894,11.7881-5.894,11.7881-5.894-11.7881Z" style="fill:none;stroke:#fff;stroke-linecap:round;stroke-linejoin:round;stroke-width:2px"></path><path d="M346.0122,307.6194l5.894,11.7881-5.894,11.7881-5.894-11.7881Z" style="fill:none;stroke:#fff;stroke-linecap:round;stroke-linejoin:round;stroke-width:2px"></path><path d="M40.0122,307.6194l5.894,11.7881-5.894,11.7881-5.894-11.7881Z" style="fill:none;stroke:#fff;stroke-linecap:round;stroke-linejoin:round;stroke-width:2px"></path><path d="M322.4362,307.6194l5.894,11.7881-5.894,11.7881-5.894-11.7881Z" style="fill:none;stroke:#fff;stroke-linecap:round;stroke-linejoin:round;stroke-width:2px"></path><path d="M298.8612,307.6194l5.894,11.7881-5.894,11.7881-5.894-11.7881Z" style="fill:none;stroke:#fff;stroke-linecap:round;stroke-linejoin:round;stroke-width:2px"></path><path d="M275.2852,307.6194l5.894,11.7881-5.894,11.7881-5.894-11.7881Z" style="fill:none;stroke:#fff;stroke-linecap:round;stroke-linejoin:round;stroke-width:2px"></path><path d="M251.7092,307.6194l5.894,11.7881-5.894,11.7881-5.894-11.7881Z" style="fill:none;stroke:#fff;stroke-linecap:round;stroke-linejoin:round;stroke-width:2px"></path><path d="M228.1332,307.6194l5.894,11.7881-5.894,11.7881-5.894-11.7881Z" style="fill:none;stroke:#fff;stroke-linecap:round;stroke-linejoin:round;stroke-width:2px"></path><path d="M204.5572,307.6194l5.894,11.7881-5.894,11.7881-5.894-11.7881Z" style="fill:none;stroke:#fff;stroke-linecap:round;stroke-linejoin:round;stroke-width:2px"></path><path d="M180.9812,307.6194l5.894,11.7881-5.894,11.7881-5.894-11.7881Z" style="fill:none;stroke:#fff;stroke-linecap:round;stroke-linejoin:round;stroke-width:2px"></path><path d="M133.8292,307.6194l5.894,11.7881-5.894,11.7881-5.8939-11.7881Z" style="fill:none;stroke:#fff;stroke-linecap:round;stroke-linejoin:round;stroke-width:2px"></path><path d="M392.8292,372.6194l5.894,11.7881-5.894,11.7881-5.894-11.7881Z" style="fill:none;stroke:#fff;stroke-linecap:round;stroke-linejoin:round;stroke-width:2px"></path><path d="M416.8292,372.6194l5.894,11.7881-5.894,11.7881-5.894-11.7881Z" style="fill:none;stroke:#fff;stroke-linecap:round;stroke-linejoin:round;stroke-width:2px"></path><path d="M227.8292,687.6194l5.894,11.7881-5.894,11.7881-5.8939-11.7881Z" style="fill:none;stroke:#fff;stroke-linecap:round;stroke-linejoin:round;stroke-width:2px"></path><path d="M381.8292,402.6194l5.894,11.7881-5.894,11.7881-5.894-11.7881Z" style="fill:none;stroke:#fff;stroke-linecap:round;stroke-linejoin:round;stroke-width:2px"></path><path d="M368.8292,372.6194l5.894,11.7881-5.894,11.7881-5.894-11.7881Z" style="fill:none;stroke:#fff;stroke-linecap:round;stroke-linejoin:round;stroke-width:2px"></path><path d="M392.8292,426.6194l5.894,11.7881-5.894,11.7881-5.894-11.7881Z" style="fill:none;stroke:#fff;stroke-linecap:round;stroke-linejoin:round;stroke-width:2px"></path><path d="M339.8292,450.6194l5.894,11.7881-5.894,11.7881-5.894-11.7881Z" style="fill:none;stroke:#fff;stroke-linecap:round;stroke-linejoin:round;stroke-width:2px"></path><path d="M392.8292,472.6194l5.894,11.7881-5.894,11.7881-5.894-11.7881Z" style="fill:none;stroke:#fff;stroke-linecap:round;stroke-linejoin:round;stroke-width:2px"></path><path d="M439.8292,538.6194l5.894,11.7881-5.894,11.7881-5.894-11.7881Z" style="fill:none;stroke:#fff;stroke-linecap:round;stroke-linejoin:round;stroke-width:2px"></path><path d="M110.2532,307.6194l5.894,11.7881-5.894,11.7881-5.894-11.7881Z" style="fill:none;stroke:#fff;stroke-linecap:round;stroke-linejoin:round;stroke-width:2px"></path><path d="M86.6772,307.6194l5.894,11.7881-5.894,11.7881-5.894-11.7881Z" style="fill:none;stroke:#fff;stroke-linecap:round;stroke-linejoin:round;stroke-width:2px"></path><path d="M63.1012,307.6194l5.894,11.7881-5.894,11.7881-5.894-11.7881Z" style="fill:none;stroke:#fff;stroke-linecap:round;stroke-linejoin:round;stroke-width:2px"></path><path d="M522.8322,201.5274l5.8941,11.788-5.8941,11.7881-5.894-11.7881Z" style="fill:none;stroke:#fff;stroke-linecap:round;stroke-linejoin:round;stroke-width:2px"></path><path d="M499.2562,201.5274l5.8941,11.788-5.8941,11.7881-5.894-11.7881Z" style="fill:none;stroke:#fff;stroke-linecap:round;stroke-linejoin:round;stroke-width:2px"></path><path d="M452.1042,201.5274l5.8941,11.788-5.8941,11.7881-5.894-11.7881Z" style="fill:none;stroke:#fff;stroke-linecap:round;stroke-linejoin:round;stroke-width:2px"></path><path d="M428.5282,201.5274l5.8941,11.788-5.8941,11.7881-5.894-11.7881Z" style="fill:none;stroke:#fff;stroke-linecap:round;stroke-linejoin:round;stroke-width:2px"></path><path d="M404.9522,201.5274l5.894,11.788-5.894,11.7881-5.894-11.7881Z" style="fill:none;stroke:#fff;stroke-linecap:round;stroke-linejoin:round;stroke-width:2px"></path><path d="M381.3762,201.5274l5.894,11.788-5.894,11.7881-5.894-11.7881Z" style="fill:none;stroke:#fff;stroke-linecap:round;stroke-linejoin:round;stroke-width:2px"></path><path d="M357.8,201.5274l5.894,11.788L357.8,225.1035l-5.894-11.7881Z" style="fill:none;stroke:#fff;stroke-linecap:round;stroke-linejoin:round;stroke-width:2px"></path><path d="M357.8,128.5274l5.894,11.788L357.8,152.1035l-5.894-11.7881Z" style="fill:none;stroke:#fff;stroke-linecap:round;stroke-linejoin:round;stroke-width:2px"></path><path d="M334.2242,201.5274l5.894,11.788-5.894,11.7881-5.894-11.7881Z" style="fill:none;stroke:#fff;stroke-linecap:round;stroke-linejoin:round;stroke-width:2px"></path><path d="M310.6492,201.5274l5.894,11.788-5.894,11.7881-5.894-11.7881Z" style="fill:none;stroke:#fff;stroke-linecap:round;stroke-linejoin:round;stroke-width:2px"></path><path d="M287.0732,201.5274l5.894,11.788-5.894,11.7881-5.894-11.7881Z" style="fill:none;stroke:#fff;stroke-linecap:round;stroke-linejoin:round;stroke-width:2px"></path><path d="M263.4972,201.5274l5.894,11.788-5.894,11.7881-5.894-11.7881Z" style="fill:none;stroke:#fff;stroke-linecap:round;stroke-linejoin:round;stroke-width:2px"></path><path d="M239.9212,201.5274l5.894,11.788-5.894,11.7881-5.894-11.7881Z" style="fill:none;stroke:#fff;stroke-linecap:round;stroke-linejoin:round;stroke-width:2px"></path><path d="M216.3452,201.5274l5.894,11.788-5.894,11.7881-5.894-11.7881Z" style="fill:none;stroke:#fff;stroke-linecap:round;stroke-linejoin:round;stroke-width:2px"></path><path d="M192.7692,201.5274l5.894,11.788-5.894,11.7881-5.8939-11.7881Z" style="fill:none;stroke:#fff;stroke-linecap:round;stroke-linejoin:round;stroke-width:2px"></path><path d="M169.1932,201.5274l5.894,11.788-5.894,11.7881-5.894-11.7881Z" style="fill:none;stroke:#fff;stroke-linecap:round;stroke-linejoin:round;stroke-width:2px"></path><path d="M174.6172,484.5274l5.894,11.788-5.894,11.7881-5.894-11.7881Z" style="fill:none;stroke:#fff;stroke-linecap:round;stroke-linejoin:round;stroke-width:2px"></path><path d="M122.0412,201.5274l5.894,11.788-5.894,11.7881-5.894-11.7881Z" style="fill:none;stroke:#fff;stroke-linecap:round;stroke-linejoin:round;stroke-width:2px"></path><path d="M98.4652,201.5274l5.894,11.788-5.894,11.7881-5.894-11.7881Z" style="fill:none;stroke:#fff;stroke-linecap:round;stroke-linejoin:round;stroke-width:2px"></path><path d="M534.62,236.8914l5.8941,11.7881-5.8941,11.788-5.894-11.788Z" style="fill:none;stroke:#fff;stroke-linecap:round;stroke-linejoin:round;stroke-width:2px"></path><path d="M511.0442,236.8914l5.8941,11.7881-5.8941,11.788L505.15,248.68Z" style="fill:none;stroke:#fff;stroke-linecap:round;stroke-linejoin:round;stroke-width:2px"></path><path d="M487.4682,236.8914l5.8941,11.7881-5.8941,11.788-5.894-11.788Z" style="fill:none;stroke:#fff;stroke-linecap:round;stroke-linejoin:round;stroke-width:2px"></path><path d="M145.4683,130.8914l5.894,11.7881-5.894,11.788-5.8941-11.788Z" style="fill:none;stroke:#fff;stroke-linecap:round;stroke-linejoin:round;stroke-width:2px"></path><path d="M463.8922,236.8914l5.8941,11.7881-5.8941,11.788-5.894-11.788Z" style="fill:none;stroke:#fff;stroke-linecap:round;stroke-linejoin:round;stroke-width:2px"></path><path d="M440.3162,236.8914,446.21,248.68l-5.8941,11.788-5.894-11.788Z" style="fill:none;stroke:#fff;stroke-linecap:round;stroke-linejoin:round;stroke-width:2px"></path><path d="M416.74,236.8914l5.894,11.7881-5.894,11.788-5.8941-11.788Z" style="fill:none;stroke:#fff;stroke-linecap:round;stroke-linejoin:round;stroke-width:2px"></path><path d="M393.1642,236.8914l5.894,11.7881-5.894,11.788L387.27,248.68Z" style="fill:none;stroke:#fff;stroke-linecap:round;stroke-linejoin:round;stroke-width:2px"></path><path d="M369.5882,236.8914l5.894,11.7881-5.894,11.788-5.894-11.788Z" style="fill:none;stroke:#fff;stroke-linecap:round;stroke-linejoin:round;stroke-width:2px"></path><path d="M310.5882,561.8923l5.894,11.7881-5.894,11.7881-5.894-11.7881Z" style="fill:none;stroke:#fff;stroke-linecap:round;stroke-linejoin:round;stroke-width:2px"></path><path d="M346.0122,236.8914l5.894,11.7881-5.894,11.788-5.894-11.788Z" style="fill:none;stroke:#fff;stroke-linecap:round;stroke-linejoin:round;stroke-width:2px"></path><path d="M322.4362,236.8914,328.33,248.68l-5.894,11.788-5.894-11.788Z" style="fill:none;stroke:#fff;stroke-linecap:round;stroke-linejoin:round;stroke-width:2px"></path><path d="M298.8612,236.8914l5.894,11.7881-5.894,11.788-5.894-11.788Z" style="fill:none;stroke:#fff;stroke-linecap:round;stroke-linejoin:round;stroke-width:2px"></path><path d="M228.2852,418.8914l5.894,11.7881-5.894,11.788-5.894-11.788Z" style="fill:none;stroke:#fff;stroke-linecap:round;stroke-linejoin:round;stroke-width:2px"></path><path d="M251.7092,236.8914l5.894,11.7881-5.894,11.788-5.894-11.788Z" style="fill:none;stroke:#fff;stroke-linecap:round;stroke-linejoin:round;stroke-width:2px"></path><path d="M228.1332,236.8914l5.894,11.7881-5.894,11.788-5.894-11.788Z" style="fill:none;stroke:#fff;stroke-linecap:round;stroke-linejoin:round;stroke-width:2px"></path><path d="M204.5572,236.8914l5.894,11.7881-5.894,11.788-5.894-11.788Z" style="fill:none;stroke:#fff;stroke-linecap:round;stroke-linejoin:round;stroke-width:2px"></path><path d="M180.9812,236.8914l5.894,11.7881-5.894,11.788-5.894-11.788Z" style="fill:none;stroke:#fff;stroke-linecap:round;stroke-linejoin:round;stroke-width:2px"></path><path d="M157.4052,236.8914l5.894,11.7881-5.894,11.788-5.894-11.788Z" style="fill:none;stroke:#fff;stroke-linecap:round;stroke-linejoin:round;stroke-width:2px"></path><path d="M133.8292,236.8914l5.894,11.7881-5.894,11.788-5.8939-11.788Z" style="fill:none;stroke:#fff;stroke-linecap:round;stroke-linejoin:round;stroke-width:2px"></path><path d="M110.2532,236.8914l5.894,11.7881-5.894,11.788-5.894-11.788Z" style="fill:none;stroke:#fff;stroke-linecap:round;stroke-linejoin:round;stroke-width:2px"></path><path d="M63.1012,236.8914l5.894,11.7881-5.894,11.788-5.894-11.788Z" style="fill:none;stroke:#fff;stroke-linecap:round;stroke-linejoin:round;stroke-width:2px"></path><path d="M559.1968,261.1634l-5.894-11.7881,5.894-11.7878,5.894,11.788Z" style="fill:none;stroke:#fff;stroke-linecap:round;stroke-linejoin:round;stroke-width:2px"></path><path d="M582.7728,261.1634l-5.894-11.7881,5.894-11.7878,5.894,11.788Z" style="fill:none;stroke:#fff;stroke-linecap:round;stroke-linejoin:round;stroke-width:2px"></path><path d="M606.3488,261.1634l-5.894-11.7881,5.894-11.7878,5.894,11.788Z" style="fill:none;stroke:#fff;stroke-linecap:round;stroke-linejoin:round;stroke-width:2px"></path><path d="M629.9248,261.1634l-5.894-11.7881,5.894-11.7878,5.894,11.788Z" style="fill:none;stroke:#fff;stroke-linecap:round;stroke-linejoin:round;stroke-width:2px"></path><path d="M653.5008,261.1634l-5.894-11.7881,5.894-11.7878,5.894,11.788Z" style="fill:none;stroke:#fff;stroke-linecap:round;stroke-linejoin:round;stroke-width:2px"></path><path d="M677.0768,261.1634l-5.894-11.7881,5.894-11.7878,5.8939,11.788Z" style="fill:none;stroke:#fff;stroke-linecap:round;stroke-linejoin:round;stroke-width:2px"></path><path d="M700.6528,261.1634l-5.894-11.7881,5.894-11.7878,5.8939,11.788Z" style="fill:none;stroke:#fff;stroke-linecap:round;stroke-linejoin:round;stroke-width:2px"></path><path d="M688.6528,231.1634l-5.894-11.7881,5.894-11.7878,5.8939,11.788Z" style="fill:none;stroke:#fff;stroke-linecap:round;stroke-linejoin:round;stroke-width:2px"></path><path d="M700.6528,209.1634l-5.894-11.7881,5.894-11.7878,5.8939,11.788Z" style="fill:none;stroke:#fff;stroke-linecap:round;stroke-linejoin:round;stroke-width:2px"></path><path d="M688.6528,191.1634l-5.894-11.7881,5.894-11.7878,5.8939,11.788Z" style="fill:none;stroke:#fff;stroke-linecap:round;stroke-linejoin:round;stroke-width:2px"></path><path d="M735.6528,231.1634l-5.894-11.7881,5.894-11.7878,5.8939,11.788Z" style="fill:none;stroke:#fff;stroke-linecap:round;stroke-linejoin:round;stroke-width:2px"></path><path d="M747.6528,136.1634l-5.894-11.7881,5.894-11.7878,5.8939,11.788Z" style="fill:none;stroke:#fff;stroke-linecap:round;stroke-linejoin:round;stroke-width:2px"></path><path d="M724.2288,261.1634l-5.894-11.7881,5.894-11.7878,5.894,11.788Z" style="fill:none;stroke:#fff;stroke-linecap:round;stroke-linejoin:round;stroke-width:2px"></path><path d="M747.8048,261.1634l-5.894-11.7881,5.894-11.7878,5.894,11.788Z" style="fill:none;stroke:#fff;stroke-linecap:round;stroke-linejoin:round;stroke-width:2px"></path><path d="M794.9558,261.1634l-5.894-11.7881,5.894-11.7878,5.8939,11.788Z" style="fill:none;stroke:#fff;stroke-linecap:round;stroke-linejoin:round;stroke-width:2px"></path><path d="M842.1078,261.1634l-5.894-11.7881,5.894-11.7878,5.894,11.788Z" style="fill:none;stroke:#fff;stroke-linecap:round;stroke-linejoin:round;stroke-width:2px"></path><path d="M865.6838,261.1634l-5.894-11.7881,5.894-11.7878,5.894,11.788Z" style="fill:none;stroke:#fff;stroke-linecap:round;stroke-linejoin:round;stroke-width:2px"></path><path d="M877.26,231.1634l-3.438-6.876-2.456-4.9121,5.894-11.7878,5.8939,11.788Z" style="fill:none;stroke:#fff;stroke-linecap:round;stroke-linejoin:round;stroke-width:2px"></path><path d="M912.8358,261.1634l-5.894-11.7881,5.894-11.7878,5.8939,11.788Z" style="fill:none;stroke:#fff;stroke-linecap:round;stroke-linejoin:round;stroke-width:2px"></path><path d="M936.4118,261.1634l-5.894-11.7881,5.894-11.7878,5.894,11.788Z" style="fill:none;stroke:#fff;stroke-linecap:round;stroke-linejoin:round;stroke-width:2px"></path><path d="M559.1968,331.8914l-5.894-11.7881,5.894-11.7878,5.894,11.7881Z" style="fill:none;stroke:#fff;stroke-linecap:round;stroke-linejoin:round;stroke-width:2px"></path><path d="M582.7728,331.8914l-5.894-11.7881,5.894-11.7878,5.894,11.7881Z" style="fill:none;stroke:#fff;stroke-linecap:round;stroke-linejoin:round;stroke-width:2px"></path><path d="M606.3488,331.8914l-5.894-11.7881,5.894-11.7878,5.894,11.7881Z" style="fill:none;stroke:#fff;stroke-linecap:round;stroke-linejoin:round;stroke-width:2px"></path><path d="M653.5008,331.8914l-5.894-11.7881,5.894-11.7878,5.894,11.7881Z" style="fill:none;stroke:#fff;stroke-linecap:round;stroke-linejoin:round;stroke-width:2px"></path><path d="M677.0768,331.8914l-5.894-11.7881,5.894-11.7878,5.8939,11.7881Z" style="fill:none;stroke:#fff;stroke-linecap:round;stroke-linejoin:round;stroke-width:2px"></path><path d="M724.2288,331.8914l-5.894-11.7881,5.894-11.7878,5.894,11.7881Z" style="fill:none;stroke:#fff;stroke-linecap:round;stroke-linejoin:round;stroke-width:2px"></path><path d="M747.8048,331.8914l-5.894-11.7881,5.894-11.7878,5.894,11.7881Z" style="fill:none;stroke:#fff;stroke-linecap:round;stroke-linejoin:round;stroke-width:2px"></path><path d="M771.3808,331.8914l-5.894-11.7881,5.894-11.7878,5.8939,11.7881Z" style="fill:none;stroke:#fff;stroke-linecap:round;stroke-linejoin:round;stroke-width:2px"></path><path d="M794.9558,331.8914l-5.894-11.7881,5.894-11.7878,5.8939,11.7881Z" style="fill:none;stroke:#fff;stroke-linecap:round;stroke-linejoin:round;stroke-width:2px"></path><path d="M818.5318,331.8914l-5.894-11.7881,5.894-11.7878,5.8939,11.7881Z" style="fill:none;stroke:#fff;stroke-linecap:round;stroke-linejoin:round;stroke-width:2px"></path><path d="M759.5318,432.8914l-5.894-11.7881,5.894-11.7878,5.8939,11.788Z" style="fill:none;stroke:#fff;stroke-linecap:round;stroke-linejoin:round;stroke-width:2px"></path><path d="M842.1078,331.8914l-5.894-11.7881,5.894-11.7878,5.894,11.7881Z" style="fill:none;stroke:#fff;stroke-linecap:round;stroke-linejoin:round;stroke-width:2px"></path><path d="M865.6838,331.8914l-5.894-11.7881,5.894-11.7878,5.894,11.7881Z" style="fill:none;stroke:#fff;stroke-linecap:round;stroke-linejoin:round;stroke-width:2px"></path><path d="M889.26,331.8914l-5.894-11.7881,5.894-11.7878,5.8939,11.7881Z" style="fill:none;stroke:#fff;stroke-linecap:round;stroke-linejoin:round;stroke-width:2px"></path><path d="M912.8358,331.8914l-5.894-11.7881,5.894-11.7878,5.8939,11.7881Z" style="fill:none;stroke:#fff;stroke-linecap:round;stroke-linejoin:round;stroke-width:2px"></path><path d="M936.4118,331.8914l-5.894-11.7881,5.894-11.7878,5.894,11.7881Z" style="fill:none;stroke:#fff;stroke-linecap:round;stroke-linejoin:round;stroke-width:2px"></path><path d="M547.4088,296.5274l-5.894-11.7881,5.894-11.7878,5.894,11.788Z" style="fill:none;stroke:#fff;stroke-linecap:round;stroke-linejoin:round;stroke-width:2px"></path><path d="M782.9848,432.5274l-5.894-11.7881,5.894-11.7878,5.894,11.788Z" style="fill:none;stroke:#fff;stroke-linecap:round;stroke-linejoin:round;stroke-width:2px"></path><path d="M770.9848,458.5274l-5.894-11.7881,5.894-11.7878,5.894,11.788Z" style="fill:none;stroke:#fff;stroke-linecap:round;stroke-linejoin:round;stroke-width:2px"></path><path d="M594.5608,296.5274l-5.894-11.7881,5.894-11.7878,5.894,11.788Z" style="fill:none;stroke:#fff;stroke-linecap:round;stroke-linejoin:round;stroke-width:2px"></path><path d="M618.1368,296.5274l-5.894-11.7881,5.894-11.7878,5.894,11.788Z" style="fill:none;stroke:#fff;stroke-linecap:round;stroke-linejoin:round;stroke-width:2px"></path><path d="M641.7128,296.5274l-5.894-11.7881,5.894-11.7878,5.8939,11.788Z" style="fill:none;stroke:#fff;stroke-linecap:round;stroke-linejoin:round;stroke-width:2px"></path><path d="M665.2888,296.5274l-5.894-11.7881,5.894-11.7878,5.894,11.788Z" style="fill:none;stroke:#fff;stroke-linecap:round;stroke-linejoin:round;stroke-width:2px"></path><path d="M712.4408,296.5274l-5.894-11.7881,5.894-11.7878,5.8939,11.788Z" style="fill:none;stroke:#fff;stroke-linecap:round;stroke-linejoin:round;stroke-width:2px"></path><path d="M736.0168,296.5274l-5.894-11.7881,5.894-11.7878,5.8939,11.788Z" style="fill:none;stroke:#fff;stroke-linecap:round;stroke-linejoin:round;stroke-width:2px"></path><path d="M759.5928,296.5274l-5.894-11.7881,5.894-11.7878,5.894,11.788Z" style="fill:none;stroke:#fff;stroke-linecap:round;stroke-linejoin:round;stroke-width:2px"></path><path d="M783.1678,296.5274l-5.894-11.7881,5.894-11.7878,5.8939,11.788Z" style="fill:none;stroke:#fff;stroke-linecap:round;stroke-linejoin:round;stroke-width:2px"></path><path d="M806.7438,296.5274l-5.894-11.7881,5.894-11.7878,5.894,11.788Z" style="fill:none;stroke:#fff;stroke-linecap:round;stroke-linejoin:round;stroke-width:2px"></path><path d="M830.32,296.5274l-5.894-11.7881,5.894-11.7878,5.894,11.788Z" style="fill:none;stroke:#fff;stroke-linecap:round;stroke-linejoin:round;stroke-width:2px"></path><path d="M853.8958,296.5274l-5.894-11.7881,5.894-11.7878L859.79,284.74Z" style="fill:none;stroke:#fff;stroke-linecap:round;stroke-linejoin:round;stroke-width:2px"></path><path d="M901.0478,296.5274l-5.894-11.7881,5.894-11.7878,5.894,11.788Z" style="fill:none;stroke:#fff;stroke-linecap:round;stroke-linejoin:round;stroke-width:2px"></path><path d="M924.6238,296.5274l-5.894-11.7881,5.894-11.7878,5.894,11.788Z" style="fill:none;stroke:#fff;stroke-linecap:round;stroke-linejoin:round;stroke-width:2px"></path><path d="M559.1968,402.6194l-5.894-11.7881,5.894-11.7878,5.894,11.7881Z" style="fill:none;stroke:#fff;stroke-linecap:round;stroke-linejoin:round;stroke-width:2px"></path><path d="M582.7728,402.6194l-5.894-11.7881,5.894-11.7878,5.894,11.7881Z" style="fill:none;stroke:#fff;stroke-linecap:round;stroke-linejoin:round;stroke-width:2px"></path><path d="M629.9248,402.6194l-5.894-11.7881,5.894-11.7878,5.894,11.7881Z" style="fill:none;stroke:#fff;stroke-linecap:round;stroke-linejoin:round;stroke-width:2px"></path><path d="M653.5008,402.6194l-5.894-11.7881,5.894-11.7878,5.894,11.7881Z" style="fill:none;stroke:#fff;stroke-linecap:round;stroke-linejoin:round;stroke-width:2px"></path><path d="M677.0768,475.6194l-5.894-11.7881,5.894-11.7878,5.8939,11.7881Z" style="fill:none;stroke:#fff;stroke-linecap:round;stroke-linejoin:round;stroke-width:2px"></path><path d="M700.6528,402.6194l-5.894-11.7881,5.894-11.7878,5.8939,11.7881Z" style="fill:none;stroke:#fff;stroke-linecap:round;stroke-linejoin:round;stroke-width:2px"></path><path d="M724.2288,402.6194l-5.894-11.7881,5.894-11.7878,5.894,11.7881Z" style="fill:none;stroke:#fff;stroke-linecap:round;stroke-linejoin:round;stroke-width:2px"></path><path d="M747.8048,402.6194l-5.894-11.7881,5.894-11.7878,5.894,11.7881Z" style="fill:none;stroke:#fff;stroke-linecap:round;stroke-linejoin:round;stroke-width:2px"></path><path d="M771.3808,402.6194l-5.894-11.7881,5.894-11.7878,5.8939,11.7881Z" style="fill:none;stroke:#fff;stroke-linecap:round;stroke-linejoin:round;stroke-width:2px"></path><path d="M794.9558,402.6194l-5.894-11.7881,5.894-11.7878,5.8939,11.7881Z" style="fill:none;stroke:#fff;stroke-linecap:round;stroke-linejoin:round;stroke-width:2px"></path><path d="M818.5318,402.6194l-5.894-11.7881,5.894-11.7878,5.8939,11.7881Z" style="fill:none;stroke:#fff;stroke-linecap:round;stroke-linejoin:round;stroke-width:2px"></path><path d="M865.6838,402.6194l-5.894-11.7881,5.894-11.7878,5.894,11.7881Z" style="fill:none;stroke:#fff;stroke-linecap:round;stroke-linejoin:round;stroke-width:2px"></path><path d="M860.26,119.6194l-5.894-11.7881,5.894-11.7878,5.8939,11.788Z" style="fill:none;stroke:#fff;stroke-linecap:round;stroke-linejoin:round;stroke-width:2px"></path><path d="M912.8358,402.6194l-5.894-11.7881,5.894-11.7878,5.8939,11.7881Z" style="fill:none;stroke:#fff;stroke-linecap:round;stroke-linejoin:round;stroke-width:2px"></path><path d="M959.9878,402.6194l-5.894-11.7881,5.894-11.7878,5.894,11.7881Z" style="fill:none;stroke:#fff;stroke-linecap:round;stroke-linejoin:round;stroke-width:2px"></path><path d="M547.4088,367.2554l-5.894-11.7881,5.894-11.7878,5.894,11.788Z" style="fill:none;stroke:#fff;stroke-linecap:round;stroke-linejoin:round;stroke-width:2px"></path><path d="M889.4088,473.2554l-5.894-11.7881,5.894-11.7878,5.894,11.788Z" style="fill:none;stroke:#fff;stroke-linecap:round;stroke-linejoin:round;stroke-width:2px"></path><path d="M570.9848,367.2554l-5.894-11.7881,5.894-11.7878,5.894,11.788Z" style="fill:none;stroke:#fff;stroke-linecap:round;stroke-linejoin:round;stroke-width:2px"></path><path d="M594.5608,367.2554l-5.894-11.7881,5.894-11.7878,5.894,11.788Z" style="fill:none;stroke:#fff;stroke-linecap:round;stroke-linejoin:round;stroke-width:2px"></path><path d="M618.1368,367.2554l-5.894-11.7881,5.894-11.7878,5.894,11.788Z" style="fill:none;stroke:#fff;stroke-linecap:round;stroke-linejoin:round;stroke-width:2px"></path><path d="M641.7128,367.2554l-5.894-11.7881,5.894-11.7878,5.8939,11.788Z" style="fill:none;stroke:#fff;stroke-linecap:round;stroke-linejoin:round;stroke-width:2px"></path><path d="M665.2888,367.2554l-5.894-11.7881,5.894-11.7878,5.894,11.788Z" style="fill:none;stroke:#fff;stroke-linecap:round;stroke-linejoin:round;stroke-width:2px"></path><path d="M724.2888,42.2554l-5.894-11.7881,5.894-11.7878,5.894,11.7881Z" style="fill:none;stroke:#fff;stroke-linecap:round;stroke-linejoin:round;stroke-width:2px"></path><path d="M688.8648,367.2554l-5.894-11.7881,5.894-11.7878,5.894,11.788Z" style="fill:none;stroke:#fff;stroke-linecap:round;stroke-linejoin:round;stroke-width:2px"></path><path d="M712.4408,367.2554l-5.894-11.7881,5.894-11.7878,5.8939,11.788Z" style="fill:none;stroke:#fff;stroke-linecap:round;stroke-linejoin:round;stroke-width:2px"></path><path d="M736.0168,367.2554l-5.894-11.7881,5.894-11.7878,5.8939,11.788Z" style="fill:none;stroke:#fff;stroke-linecap:round;stroke-linejoin:round;stroke-width:2px"></path><path d="M806.5928,185.2554l-5.894-11.7881,5.894-11.7878,5.894,11.788Z" style="fill:none;stroke:#fff;stroke-linecap:round;stroke-linejoin:round;stroke-width:2px"></path><path d="M783.1678,367.2554l-5.894-11.7881,5.894-11.7878,5.8939,11.788Z" style="fill:none;stroke:#fff;stroke-linecap:round;stroke-linejoin:round;stroke-width:2px"></path><path d="M806.7438,367.2554l-5.894-11.7881,5.894-11.7878,5.894,11.788Z" style="fill:none;stroke:#fff;stroke-linecap:round;stroke-linejoin:round;stroke-width:2px"></path><path d="M830.32,367.2554l-5.894-11.7881L830.32,343.68l5.894,11.788Z" style="fill:none;stroke:#fff;stroke-linecap:round;stroke-linejoin:round;stroke-width:2px"></path><path d="M853.8958,367.2554l-5.894-11.7881,5.894-11.7878,5.8939,11.788Z" style="fill:none;stroke:#fff;stroke-linecap:round;stroke-linejoin:round;stroke-width:2px"></path><path d="M877.4718,367.2554l-5.894-11.7881,5.894-11.7878,5.8939,11.788Z" style="fill:none;stroke:#fff;stroke-linecap:round;stroke-linejoin:round;stroke-width:2px"></path><path d="M901.0478,367.2554l-5.894-11.7881,5.894-11.7878,5.894,11.788Z" style="fill:none;stroke:#fff;stroke-linecap:round;stroke-linejoin:round;stroke-width:2px"></path><path d="M924.6238,367.2554l-5.894-11.7881,5.894-11.7878,5.894,11.788Z" style="fill:none;stroke:#fff;stroke-linecap:round;stroke-linejoin:round;stroke-width:2px"></path><path d="M948.2,367.2554l-5.894-11.7881L948.2,343.68l5.8939,11.788Z" style="fill:none;stroke:#fff;stroke-linecap:round;stroke-linejoin:round;stroke-width:2px"></path></svg> 