<svg id="Capa_1" enable-background="new 0 0 510 510" height="512" viewBox="0 0 510 510" width="512" xmlns="http://www.w3.org/2000/svg"><g><path style="fill:#2271b1;" d="m437.957 286.83v-223.83c0-34.74-28.26-63-63-63h-303.23c19.394 10.883 32.23 31.489 32.23 55v377c0 16.54 13.46 30 30 30h150.52c-42.741-98.802 48.904-204.824 153.48-175.17zm-196.83-69.31c4.29-7.09 13.51-9.36 20.6-5.07 11.51 6.97 16.2 7.66 31.2 7.57 15.6-.1 24.31-10.41 25.8-19.96.83-5.29.09-14.86-14.14-19.52-23.06-7.54-36.4-13.47-46.04-20.47-26.796-19.437-16.997-66.291 19.47-75.18v-5.74c0-8.28 6.72-15 15-15s15 6.72 15 15v4.79c11.3 2.28 20.01 7.16 24.82 11.18 3.47 2.75 5.69 6.99 5.69 11.75 0 12.977-15.285 19.692-24.88 11.26l-.02.02.13.12c-10.644-8.316-37.105-9.021-40.23 8.19-.57 3.17-.17 7.29 2.64 9.33 8.6 6.24 23.91 11.71 37.75 16.24 52.73 17.256 42.028 83.759-5.9 96.09v6.88c0 8.28-6.72 15-15 15s-15-6.72-15-15v-5.53c-10.85-1.08-19.75-4.04-31.83-11.35-7.09-4.29-9.35-13.52-5.06-20.6zm-91.17-121.52h32c8.28 0 15 6.72 15 15s-6.72 15-15 15h-32c-8.28 0-15-6.72-15-15s6.72-15 15-15zm0 56h32c8.28 0 15 6.72 15 15s-6.72 15-15 15h-32c-8.28 0-15-6.72-15-15s6.72-15 15-15zm0 64h32c8.28 0 15 6.72 15 15s-6.72 15-15 15h-32c-8.28 0-15-6.72-15-15s6.72-15 15-15zm88 158h-88c-8.28 0-15-6.72-15-15s6.72-15 15-15h88c8.28 0 15 6.72 15 15s-6.72 15-15 15zm0-64h-88c-8.28 0-15-6.72-15-15s6.72-15 15-15h88c8.28 0 15 6.72 15 15s-6.72 15-15 15z"/><path style="fill:#2271b1;" d="m491.807 367.37-74.24 74.24c-5.811 5.812-15.325 5.895-21.22 0l-24-24c-10.733-10.729-.464-30.101 15.98-24.62 3.931 1.449 4.478 2.638 18.63 16.8l67.35-67.35c-18.02-18.75-43.35-30.44-71.35-30.44-54.59 0-99 44.41-99 99s44.41 99 99 99c73.35 0 121.068-77.352 88.85-142.63z"/><path style="fill:#2271b1;" d="m40.957 22.16c-18.225 0-33 14.775-33 33v64.84c0 16.569 13.431 30 30 30h36v-94.84c0-18.225-14.775-33-33-33z"/></g></svg>