<?xml version="1.0" encoding="utf-8"?>
<!-- Generator: Adobe Illustrator 21.1.0, SVG Export Plug-In . SVG Version: 6.00 Build 0)  -->
<svg version="1.1" id="Layer_1" xmlns="http://www.w3.org/2000/svg" xmlns:xlink="http://www.w3.org/1999/xlink" x="0px" y="0px"
	 viewBox="0 0 42 25" style="enable-background:new 0 0 42 25;" xml:space="preserve">
<style type="text/css">
	.st0{fill:#62B1F4;}
	.st1{fill:#66D55F;}
	.st2{fill:#FFFFFF;}
	.st3{enable-background:new    ;}
	.st4{fill:#3F3F3F;}
</style>
<rect class="st0" width="42" height="25"/>
<circle class="st1" cx="8.8" cy="8.6" r="5.4"/>
<g>
	<path class="st2" d="M8.1,11.6V9.4H5.9V7.8h2.3V5.6h1.5v2.2H12v1.5H9.6v2.2H8.1V11.6z"/>
</g>
<g class="st3">
	<path class="st2" d="M16.6,12.8V4.7h1.6v3.2h3.2V4.7H23v8.1h-1.6V9.2h-3.2v3.5H16.6z"/>
	<path class="st2" d="M24.3,10.1l1.6-0.2c0.1,0.5,0.3,0.9,0.6,1.2c0.3,0.3,0.7,0.4,1.2,0.4c0.5,0,0.9-0.1,1.2-0.3
		c0.3-0.2,0.4-0.5,0.4-0.8c0-0.2-0.1-0.4-0.2-0.5c-0.1-0.1-0.3-0.3-0.6-0.3c-0.2-0.1-0.6-0.2-1.3-0.4c-0.9-0.2-1.5-0.5-1.8-0.8
		c-0.5-0.4-0.7-1-0.7-1.6c0-0.4,0.1-0.8,0.3-1.2c0.2-0.4,0.6-0.6,1-0.8c0.4-0.2,1-0.3,1.6-0.3c1,0,1.8,0.2,2.3,0.7s0.8,1,0.8,1.8
		L29,7.1c-0.1-0.4-0.2-0.7-0.4-0.9c-0.2-0.2-0.6-0.3-1-0.3c-0.5,0-0.8,0.1-1.1,0.3c-0.2,0.1-0.3,0.3-0.3,0.5c0,0.2,0.1,0.4,0.2,0.5
		c0.2,0.2,0.7,0.4,1.5,0.5c0.8,0.2,1.4,0.4,1.8,0.6s0.7,0.5,0.9,0.8c0.2,0.3,0.3,0.8,0.3,1.3c0,0.5-0.1,0.9-0.4,1.3
		c-0.3,0.4-0.6,0.7-1.1,0.9s-1.1,0.3-1.8,0.3c-1,0-1.8-0.2-2.4-0.7S24.4,11,24.3,10.1z"/>
	<path class="st2" d="M39.5,12.8h-1.8L37,10.9h-3.2l-0.7,1.8h-1.7l3.1-8.1h1.7L39.5,12.8z M36.5,9.6l-1.1-3l-1.1,3H36.5z"/>
</g>
<path class="st4" d="M40.7,0L40.7,0H1.3H1.2H0v25h1.3v0.1H42V25l0,0V0H40.7z M40.7,1.3v15.1H1.3V1.3H40.7z M1.3,23.8v-2.2h39.4v2.2
	H1.3z"/>
</svg>
