<?xml version="1.0" ?><!DOCTYPE svg  PUBLIC '-//W3C//DTD SVG 1.1//EN'  'http://www.w3.org/Graphics/SVG/1.1/DTD/svg11.dtd'><svg height="8.4666mm" style="shape-rendering:geometricPrecision; text-rendering:geometricPrecision; image-rendering:optimizeQuality; fill-rule:evenodd; clip-rule:evenodd" version="1.1" viewBox="0 0 846.66 846.66" width="8.4666mm" xml:space="preserve" xmlns="http://www.w3.org/2000/svg" xmlns:xlink="http://www.w3.org/1999/xlink"><defs><style type="text/css">
   <![CDATA[
    .fil0 {fill:black;fill-rule:nonzero}
   ]]>
  </style></defs><g id="Layer_x0020_1"><path class="fil0" d="M506.02 181.68c23.95,22.71 37.65,54.07 37.65,87.16l0 87.4c0,11.42 -9.26,20.68 -20.68,20.68l-199.32 0c-11.42,0 -20.68,-9.26 -20.68,-20.68l0 -87.4c0,-32.98 13.83,-64.58 37.65,-87.16 -10.7,-15.88 -16.95,-35.01 -16.95,-55.6 0,-55.02 44.62,-99.64 99.64,-99.64 55.02,0 99.64,44.62 99.64,99.64 0,20.59 -6.25,39.72 -16.95,55.6zm-62.01 394.05l115.07 78.35c22.39,15.28 -0.87,49.37 -23.26,34.09l-112.49 -76.59 -112.49 76.59c-22.39,15.28 -45.65,-18.81 -23.26,-34.09l115.07 -78.35 0 -144.93c0,-27.19 41.36,-27.19 41.36,0l0 144.93zm272.53 -105.98c55.03,0 99.64,44.61 99.64,99.64 0,20.59 -6.25,39.72 -16.95,55.61 23.82,22.66 37.65,54.17 37.65,87.14l0 87.4c0,11.42 -9.26,20.68 -20.67,20.68l-199.32 0c-11.42,0 -20.68,-9.26 -20.68,-20.68l0 -87.4c0,-33.16 13.77,-64.42 37.65,-87.14 -10.7,-15.88 -16.95,-35.02 -16.95,-55.61 0,-55.03 44.61,-99.64 99.63,-99.64zm53.09 183.97c-15.37,9.69 -33.57,15.3 -53.09,15.3 -19.51,0 -37.71,-5.61 -53.08,-15.3 -16.48,14.95 -25.9,36.06 -25.9,58.42l0 66.73 157.97 0 0 -66.73c0,-22.47 -9.29,-43.36 -25.9,-58.42zm-53.09 -142.62c-32.19,0 -58.28,26.09 -58.28,58.29 0,32.19 26.09,58.28 58.28,58.28 32.19,0 58.29,-26.09 58.29,-58.28 0,-32.2 -26.09,-58.29 -58.29,-58.29zm-586.42 -41.35c55.02,0 99.63,44.61 99.63,99.64 0,20.58 -6.24,39.71 -16.94,55.59 23.83,22.6 37.64,54.19 37.64,87.16l0 87.4c0,11.42 -9.26,20.68 -20.67,20.68l-199.32 0c-11.42,0 -20.68,-9.26 -20.68,-20.68l0 -87.4c0,-32.97 13.84,-64.47 37.65,-87.14 -10.7,-15.88 -16.95,-35.02 -16.95,-55.61 0,-55.03 44.61,-99.64 99.64,-99.64zm53.06 183.98c-15.36,9.69 -33.56,15.29 -53.06,15.29 -19.52,0 -37.72,-5.61 -53.08,-15.3 -16.61,15.06 -25.91,35.95 -25.91,58.42l0 66.73 157.97 0 0 -66.73c0,-22.48 -9.39,-43.35 -25.92,-58.41zm-53.06 -142.63c-32.2,0 -58.29,26.09 -58.29,58.29 0,32.19 26.1,58.28 58.29,58.28 32.19,0 58.28,-26.09 58.28,-58.28 0,-32.2 -26.09,-58.29 -58.28,-58.29zm240.14 -300.68c-16.5,15.04 -25.91,35.89 -25.91,58.42l0 66.72 157.96 0 0 -66.72c0,-22.35 -9.43,-43.41 -25.91,-58.42 -15.37,9.69 -33.56,15.3 -53.07,15.3 -19.51,0 -37.7,-5.61 -53.07,-15.3zm53.07 -142.62c-32.19,0 -58.29,26.09 -58.29,58.28 0,32.19 26.1,58.29 58.29,58.29 32.19,0 58.29,-26.1 58.29,-58.29 0,-32.19 -26.1,-58.28 -58.29,-58.28z"/></g></svg>