<?xml version="1.0" ?><svg data-name="Layer 24" id="Layer_24" viewBox="0 0 32 32" xmlns="http://www.w3.org/2000/svg"><title/><path d="M2.5,10.268a1,1,0,0,0-.366,1.366l1,1.732a1,1,0,1,0,1.732-1h0L5.847,11.8A3.993,3.993,0,0,0,7.7,12.858V14a1,1,0,0,0,0,2h2a1,1,0,0,0,0-2V12.858A3.993,3.993,0,0,0,11.546,11.8l0.98,0.566h0a1,1,0,0,0,1.732,1l1-1.732a1,1,0,0,0-1.732-1l-0.991-.572A3.947,3.947,0,0,0,12.7,9a3.947,3.947,0,0,0-.161-1.062l0.991-.572a1,1,0,0,0,1.732-1l-1-1.732a1,1,0,1,0-1.732,1h0l-0.98.566A3.993,3.993,0,0,0,9.7,5.142V4a1,1,0,0,0,0-2h-2a1,1,0,0,0,0,2V5.142A3.993,3.993,0,0,0,5.847,6.2L4.866,5.634h0a1,1,0,1,0-1.732-1l-1,1.732a1,1,0,0,0,1.732,1L4.857,7.939A3.946,3.946,0,0,0,4.7,9a3.946,3.946,0,0,0,.161,1.061l-0.991.572A1,1,0,0,0,2.5,10.268ZM8.7,7a2,2,0,1,1-2,2A2,2,0,0,1,8.7,7Z"/><path d="M29,6H25a1,1,0,0,0,0,2h1.683L15.87,20.615l-4.245-3.4a1,1,0,0,0-1.283.028l-8,7a1,1,0,0,0,1.317,1.506l7.37-6.449,4.347,3.478a1,1,0,0,0,1.384-.131L28,9.537V11a1,1,0,0,0,2,0V7A1,1,0,0,0,29,6Z"/><path d="M6,26a1,1,0,0,0-1,1v2a1,1,0,0,0,2,0V27A1,1,0,0,0,6,26Z"/><path d="M11,22a1,1,0,0,0-1,1v6a1,1,0,0,0,2,0V23A1,1,0,0,0,11,22Z"/><path d="M16,25a1,1,0,0,0-1,1v3a1,1,0,0,0,2,0V26A1,1,0,0,0,16,25Z"/><path d="M21,21a1,1,0,0,0-1,1v7a1,1,0,0,0,2,0V22A1,1,0,0,0,21,21Z"/><path d="M26,15a1,1,0,0,0-1,1V29a1,1,0,0,0,2,0V16A1,1,0,0,0,26,15Z"/></svg>