<?xml version="1.0" ?><svg viewBox="0 0 24 24" xmlns="http://www.w3.org/2000/svg"><title/><g id="coupon"><path d="M23,3H1A1,1,0,0,0,0,4V9a1,1,0,0,0,1,1,2,2,0,0,1,0,4,1,1,0,0,0-1,1v5a1,1,0,0,0,1,1H23a1,1,0,0,0,1-1V4A1,1,0,0,0,23,3ZM22,19H2V15.87A4,4,0,0,0,2,8.13V5H22Z"/><path d="M10,8a1,1,0,0,0,0,2A1,1,0,0,0,10,8Z"/><path d="M9,6a1,1,0,0,0,2,0A1,1,0,0,0,9,6Z"/><path d="M10,11a1,1,0,0,0,0,2A1,1,0,0,0,10,11Z"/><path d="M10,14a1,1,0,0,0,0,2A1,1,0,0,0,10,14Z"/><path d="M11,18a1,1,0,0,0-2,0A1,1,0,0,0,11,18Z"/><path d="M14,9h5a1,1,0,0,0,0-2H14A1,1,0,0,0,14,9Z"/><path d="M14,13h5a1,1,0,0,0,0-2H14A1,1,0,0,0,14,13Z"/></g></svg>