<?xml version="1.0" encoding="utf-8"?>
<!-- Generator: Adobe Illustrator 21.1.0, SVG Export Plug-In . SVG Version: 6.00 Build 0)  -->
<svg version="1.1" id="Layer_1" xmlns="http://www.w3.org/2000/svg" xmlns:xlink="http://www.w3.org/1999/xlink" x="0px" y="0px"
	 viewBox="0 0 121.8 111.4" style="enable-background:new 0 0 121.8 111.4;" xml:space="preserve">
<style type="text/css">
	.st0{fill:none;stroke:#000000;stroke-width:10;stroke-linecap:round;stroke-linejoin:round;}
</style>
<path class="st0" d="M106.4,99.6H15.2c-5.1,0-9.3-4.1-9.3-9.3V22.2c0-5.1,4.1-9.3,9.3-9.3h91.2c5.1,0,9.3,4.1,9.3,9.3v68.1
	C115.6,95.5,111.5,99.6,106.4,99.6z"/>
<line class="st0" x1="7.2" y1="35.3" x2="113.7" y2="35.3"/>
<path class="st0" d="M94.6,81.4c-4.5,0-9,0-13.6,0"/>
<path class="st0" d="M67.5,81.4c-4.5,0-9,0-13.6,0"/>
<path class="st0" d="M40.5,81.4c-4.5,0-9,0-13.6,0"/>
</svg>
