<?xml version="1.0" encoding="utf-8"?>
<!-- Generator: Adobe Illustrator 21.1.0, SVG Export Plug-In . SVG Version: 6.00 Build 0)  -->
<svg version="1.1" id="Layer_1" xmlns="http://www.w3.org/2000/svg" xmlns:xlink="http://www.w3.org/1999/xlink" x="0px" y="0px"
	 viewBox="0 0 95.6 111.4" style="enable-background:new 0 0 95.6 111.4;" xml:space="preserve">
<style type="text/css">
	.st0{fill:none;stroke:#000000;stroke-width:10;stroke-linecap:round;stroke-linejoin:round;}
</style>
<g>
	<line class="st0" x1="68.1" y1="44" x2="46.6" y2="31.9"/>
	<path class="st0" d="M88.8,74.3V37.6c0-3.2-1.8-6.4-4.6-7.8L52.1,11.5c-2.7-1.8-6.4-1.8-9.2,0l-32,18.3c-2.7,1.4-4.6,4.6-4.6,7.8
		v36.7c0,3.2,1.8,6.4,4.6,7.8L43,100.4c2.7,1.8,6.4,1.8,9.2,0l32-18.4C86.9,80.7,88.8,77.5,88.8,74.3z"/>
	<polyline class="st0" points="7.7,33 47.5,55.9 87.4,33 	"/>
	<line class="st0" x1="47.5" y1="97.9" x2="47.5" y2="55.9"/>
</g>
</svg>
