<?xml version="1.0" encoding="utf-8"?>
<!-- Generator: Adobe Illustrator 21.1.0, SVG Export Plug-In . SVG Version: 6.00 Build 0)  -->
<svg version="1.1" id="Layer_1" xmlns="http://www.w3.org/2000/svg" xmlns:xlink="http://www.w3.org/1999/xlink" x="0px" y="0px"
	 viewBox="0 0 135.8 111.4" style="enable-background:new 0 0 135.8 111.4;" xml:space="preserve">
<style type="text/css">
	.st0{fill:#14748D;}
	.st1{fill:#DD1F69;}
	.st2{fill:#FCAC17;}
	.st3{fill:#1EB6E5;}
</style>
<g>
	<g>
		<path class="st0" d="M36.1,79.6c-1.3,0-2.3,1-2.3,2.4c0,1.4,1,2.4,2.3,2.4c0.7,0,1.5-0.4,2.1-1l1.3,1.4c-0.9,1-2.2,1.6-3.5,1.6
			c-2.5,0-4.4-1.9-4.4-4.4c0-2.4,1.9-4.3,4.5-4.3c1.2,0,2.5,0.6,3.4,1.5l-1.3,1.5C37.6,80,36.8,79.6,36.1,79.6z"/>
		<path class="st0" d="M51.3,82c0,2.5-1.9,4.4-4.5,4.4c-2.6,0-4.5-1.9-4.5-4.4c0-2.5,1.9-4.3,4.5-4.3C49.3,77.7,51.3,79.5,51.3,82z
			 M44.5,82c0,1.4,1.1,2.4,2.3,2.4c1.3,0,2.3-1.1,2.3-2.4s-1-2.4-2.3-2.4S44.5,80.6,44.5,82z"/>
		<path class="st0" d="M56.7,77.8l3.8,5.1v-5.1h2v8.5h-1.9l-3.8-5.1v5.1h-2v-8.5H56.7z"/>
		<path class="st0" d="M68.4,77.8l3.8,5.1v-5.1h2v8.5h-1.9l-3.8-5.1v5.1h-2v-8.5H68.4z"/>
		<path class="st0" d="M84.8,77.8v1.8h-4.4v1.6h4v1.8h-4v1.6H85v1.8h-6.7v-8.5H84.8z"/>
		<path class="st0" d="M92.6,79.6c-1.3,0-2.3,1-2.3,2.4c0,1.4,1,2.4,2.3,2.4c0.7,0,1.5-0.4,2.1-1l1.3,1.4c-0.9,1-2.2,1.6-3.5,1.6
			c-2.5,0-4.4-1.9-4.4-4.4c0-2.4,1.9-4.3,4.5-4.3c1.2,0,2.5,0.6,3.4,1.5l-1.3,1.5C94.2,80,93.4,79.6,92.6,79.6z"/>
		<path class="st0" d="M105.7,77.8v1.8h-2.5v6.7h-2.2v-6.7h-2.5v-1.8H105.7z"/>
	</g>
</g>
<g>
	<g>
		<g>
			<path class="st1" d="M40.8,70.9L36,61.7h-0.2h-6.2v9.1H21v-33h14.8c8.8,0,13.7,4.2,13.7,11.6c0,5-2.1,8.7-5.9,10.6l6.9,10.8H40.8
				z M29.6,54.9h6.3c3.5,0,5.5-1.8,5.5-5.1c0-3.2-2-5-5.5-5h-6.3V54.9z"/>
		</g>
	</g>
	<g>
		<g>
			<path class="st2" d="M83.6,54.4c0,9.8-7.2,16.5-17.9,16.5H51.9v-33h14.2C76.5,37.9,83.6,44.6,83.6,54.4z M74.8,54.5
				c0-5.7-3.7-9.6-8.9-9.6h-5.4v19h5.8C71.3,63.9,74.8,60.1,74.8,54.5z"/>
		</g>
	</g>
	<g>
		<g>
			<path class="st3" d="M94.1,37.9v13.5h13.3V37.9h8.6v33h-8.6V58.3H94.1v12.7h-8.6v-33H94.1z"/>
		</g>
	</g>
</g>
<path class="st0" d="M122.9,24.1H12.6c-4.3,0-7.7,3.5-7.7,7.7v43.6c0,5.1,4.2,9.3,9.3,9.3h10.5v-4.2H14.2c-2.8,0-5.1-2.3-5.1-5.1
	V31.8c0-1.9,1.6-3.5,3.5-3.5h110.2c2.8,0,5.1,2.3,5.1,5.1v42c0,2.8-2.3,5.1-5.1,5.1h-10.3v4.2h10.3c5.1,0,9.3-4.2,9.3-9.3v-42
	C132.2,28.2,128,24.1,122.9,24.1z"/>
<path class="st3" d="M9.1,43.7V31.9c0-1.9,1.6-3.5,3.5-3.5h110.2c2.8,0,5.1,2.3,5.1,5.1v23c1.4,1.1,2.8,2.1,4.2,3.3V33.5
	c0-5.1-4.2-9.3-9.3-9.3H12.6c-4.3,0-7.7,3.5-7.7,7.7V47C6.3,45.9,7.7,44.8,9.1,43.7z"/>
</svg>
